<?xml version="1.0" encoding="UTF-8" standalone="no"?>
<svg
   xmlns:dc="http://purl.org/dc/elements/1.1/"
   xmlns:cc="http://creativecommons.org/ns#"
   xmlns:rdf="http://www.w3.org/1999/02/22-rdf-syntax-ns#"
   xmlns:svg="http://www.w3.org/2000/svg"
   xmlns="http://www.w3.org/2000/svg"
   xmlns:sodipodi="http://sodipodi.sourceforge.net/DTD/sodipodi-0.dtd"
   xmlns:inkscape="http://www.inkscape.org/namespaces/inkscape"
   version="1.0"
   width="151.98mm"
   height="290.54999mm"
   id="svg982"
   sodipodi:docname="eticab.svg"
   inkscape:version="0.92.2 (5c3e80d, 2017-08-06)">
  <metadata
     id="metadata986">
    <rdf:RDF>
      <cc:Work
         rdf:about="">
        <dc:format>image/svg+xml</dc:format>
        <dc:type
           rdf:resource="http://purl.org/dc/dcmitype/StillImage" />
        <dc:title></dc:title>
      </cc:Work>
    </rdf:RDF>
  </metadata>
  <sodipodi:namedview
     pagecolor="#ffffff"
     bordercolor="#666666"
     borderopacity="1"
     objecttolerance="10"
     gridtolerance="10"
     guidetolerance="10"
     inkscape:pageopacity="0"
     inkscape:pageshadow="2"
     inkscape:window-width="760"
     inkscape:window-height="480"
     id="namedview984"
     showgrid="false"
     inkscape:zoom="0.75673295"
     inkscape:cx="287.20629"
     inkscape:cy="549.07084"
     inkscape:window-x="0"
     inkscape:window-y="0"
     inkscape:window-maximized="1"
     inkscape:current-layer="svg982" />
  <defs
     id="defs816">
    <pattern
       id="EMFhbasepattern"
       patternUnits="userSpaceOnUse"
       width="6"
       height="6"
       x="0"
       y="0" />
  </defs>
  <path
     style="fill:#ffffff;fill-rule:evenodd;fill-opacity:1;stroke:none;"
     d="  M 0.079842275,0.079842275   L 0.079842275,1097.9111   L 574.94422,1097.9111   L 574.94422,0.079842275   L 0.079842275,0.079842275   z "
     id="path818" />
  <text
     xml:space="preserve"
     style="font-size:58.625000px;font-style:normal;font-variant:normal;font-weight:400;font-stretch:Normal;line-height:125.000000%;letter-spacing:0px;word-spacing:0px;fill:#000000;fill-opacity:1;stroke:none;font-family:Montserrat;text-align:start;text-anchor:start;"
     transform="matrix(1.000000,-0.000000,0.000000,1.000000,36.530774,68.443060)"
     x="0.000000"
     y="0.000000"
     id="text824"><tspan
       sodipodi:role="line"
       x="0.000000"
       y="0.000000"
       id="tspan822"><tspan
         dx="0.000000"
         dy="0.000000"
         style="fill:#000000;font-size:58.625000px;font-style:normal;font-variant:normal;font-weight:400;font-stretch:Normal;font-family:Montserrat;"
         id="tspan820">ÉTICA DOCENTE</tspan></tspan></text>
  <path
     style="fill:#e2412a;fill-rule:evenodd;fill-opacity:1;stroke:none;"
     d="  M 26.727201,544.46443   C 26.727201,513.22614 52.057163,487.89618 83.315414,487.89618   C 114.5537,487.89618 139.88367,513.22614 139.88367,544.46443   C 139.88367,575.72268 114.5537,601.05264 83.315414,601.05264   C 52.057163,601.05264 26.727201,575.72268 26.727201,544.46443   z "
     id="path826" />
  <path
     style="fill:#ffffff;fill-rule:evenodd;fill-opacity:1;stroke:none;"
     d="  M 87.187764,584.08616   C 79.423103,584.08616 79.423103,584.08616 79.423103,584.08616   C 78.065784,584.08616 76.688505,583.16797 76.229412,581.3316   C 74.852133,573.54698 74.852133,573.54698 74.852133,573.54698   C 74.852133,573.08789 74.852133,573.08789 74.39304,573.08789   C 73.035721,572.62879 71.199349,571.71061 69.84203,571.25152   C 69.382937,570.79242 69.382937,570.79242 68.923844,571.25152   C 62.516501,575.84245 62.516501,575.84245 62.516501,575.84245   C 61.159182,576.76063 59.32281,576.76063 58.404624,575.38335   C 52.935428,569.8942 52.935428,569.8942 52.935428,569.8942   C 51.558149,568.97601 51.558149,566.68055 52.476335,565.30327   C 57.047305,559.35502 57.047305,559.35502 57.047305,559.35502   C 57.047305,558.89592 57.047305,558.43683 57.047305,557.97774   C 56.129119,556.60046 55.670026,555.22318 55.210933,553.86586   C 55.210933,553.40677 54.75184,552.94767 54.75184,552.94767   C 46.987179,552.02949 46.987179,552.02949 46.987179,552.02949   C 45.170767,551.57039 43.793488,550.19312 43.793488,548.35674   C 43.793488,540.57212 43.793488,540.57212 43.793488,540.57212   C 43.793488,539.2148 45.170767,537.83752 46.987179,537.37843   C 54.75184,536.00115 54.75184,536.00115 54.75184,536.00115   C 54.75184,536.00115 55.210933,536.00115 55.210933,535.54206   C 55.670026,534.16478 56.129119,532.32841 57.047305,530.97109   C 57.047305,530.51199 57.047305,530.51199 57.047305,530.0529   C 52.476335,523.64556 52.476335,523.64556 52.476335,523.64556   C 51.558149,522.26828 51.558149,520.43191 52.935428,519.51372   C 58.404624,514.02456 58.404624,514.02456 58.404624,514.02456   C 59.32281,512.64729 61.159182,512.64729 62.516501,513.56547   C 68.923844,518.13644 68.923844,518.13644 68.923844,518.13644   C 69.382937,518.13644 69.382937,518.13644 69.84203,518.13644   C 71.199349,517.21826 73.035721,516.77912 74.39304,516.32003   C 74.852133,516.32003 74.852133,515.86094 74.852133,515.86094   C 76.229412,508.07632 76.229412,508.07632 76.229412,508.07632   C 76.688505,506.23994 78.065784,504.86266 79.423103,504.86266   C 87.187764,504.86266 87.187764,504.86266 87.187764,504.86266   C 89.024136,504.86266 90.401416,506.23994 90.840548,508.07632   C 91.758734,515.86094 91.758734,515.86094 91.758734,515.86094   C 91.758734,515.86094 92.217827,516.32003 92.67692,516.32003   C 94.0542,516.77912 95.411518,517.21826 96.788798,518.13644   C 97.247891,518.13644 97.706984,518.13644 97.706984,518.13644   C 104.09437,513.56547 104.09437,513.56547 104.09437,513.56547   C 105.47164,512.64729 107.74715,512.64729 108.66534,514.02456   C 114.15449,519.51372 114.15449,519.51372 114.15449,519.51372   C 115.51181,520.43191 115.51181,522.26828 114.61359,523.64556   C 110.04262,530.0529 110.04262,530.0529 110.04262,530.0529   C 109.58352,530.51199 109.58352,530.97109 110.04262,530.97109   C 110.50171,532.32841 111.39993,534.16478 111.85903,535.54206   C 111.85903,536.00115 111.85903,536.00115 112.31812,536.00115   C 120.08278,537.37843 120.08278,537.37843 120.08278,537.37843   C 120.08278,537.37843 120.08278,537.37843 120.08278,537.37843   C 121.91915,537.83752 122.83734,539.2148 122.83734,540.57212   C 122.83734,548.35674 122.83734,548.35674 122.83734,548.35674   C 122.83734,550.19312 121.91915,551.57039 120.08278,552.02949   C 112.31812,552.94767 112.31812,552.94767 112.31812,552.94767   C 111.85903,552.94767 111.85903,553.40677 111.85903,553.86586   C 111.39993,555.22318 110.50171,556.60046 110.04262,557.97774   C 109.58352,558.43683 109.58352,558.89592 110.04262,559.35502   C 114.61359,565.30327 114.61359,565.30327 114.61359,565.30327   C 115.51181,566.68055 115.51181,568.97601 114.15449,569.8942   C 108.66534,575.38335 108.66534,575.38335 108.66534,575.38335   C 107.74715,576.76063 105.47164,576.76063 104.09437,575.84245   C 97.706984,571.25152 97.706984,571.25152 97.706984,571.25152   C 97.706984,570.79242 97.247891,570.79242 96.788798,571.25152   C 95.411518,571.71061 94.0542,572.62879 92.67692,573.08789   C 92.217827,573.08789 91.758734,573.08789 91.758734,573.54698   C 90.840548,581.3316 90.840548,581.3316 90.840548,581.3316   C 90.401416,583.16797 89.024136,584.08616 87.187764,584.08616   z  M 79.882196,580.87251   C 87.187764,580.87251 87.187764,580.87251 87.187764,580.87251   C 88.10595,573.08789 88.10595,573.08789 88.10595,573.08789   C 88.565043,571.25152 89.942323,569.8942 91.299641,569.4351   C 92.67692,568.97601 94.0542,568.51692 95.411518,568.05782   C 96.788798,567.13964 98.62517,567.13964 99.982489,568.05782   C 106.38983,572.62879 106.38983,572.62879 106.38983,572.62879   C 111.39993,567.59873 111.39993,567.59873 111.39993,567.59873   C 106.82896,561.19139 106.82896,561.19139 106.82896,561.19139   C 105.93074,559.81411 105.93074,557.97774 106.82896,556.60046   C 107.28806,555.22318 107.74715,553.86586 108.20624,552.48858   C 108.66534,551.1113 110.04262,549.73402 111.85903,549.73402   C 119.62369,548.35674 119.62369,548.35674 119.62369,548.35674   C 119.62369,541.03121 119.62369,541.03121 119.62369,541.03121   C 111.85903,539.6739 111.85903,539.6739 111.85903,539.6739   C 110.04262,539.6739 108.66534,538.29662 108.20624,536.46024   C 107.74715,535.08296 107.28806,534.16478 106.82896,532.7875   C 105.93074,530.97109 105.93074,529.13472 106.82896,528.21653   C 111.39993,521.80919 111.39993,521.80919 111.39993,521.80919   C 106.38983,516.32003 106.38983,516.32003 106.38983,516.32003   C 99.982489,520.891 99.982489,520.891 99.982489,520.891   C 98.62517,522.26828 96.788798,522.26828 95.411518,521.35009   C 94.0542,520.891 92.67692,519.97281 91.299641,519.97281   C 89.942323,519.05463 88.565043,517.67735 88.10595,516.32003   C 87.187764,508.53541 87.187764,508.53541 87.187764,508.53541   C 79.882196,508.53541 79.882196,508.53541 79.882196,508.53541   C 78.504917,516.32003 78.504917,516.32003 78.504917,516.32003   C 78.504917,517.67735 77.147598,519.05463 75.311226,519.97281   C 73.953907,519.97281 73.035721,520.891 71.658442,521.35009   C 69.84203,522.26828 68.005658,522.26828 66.628378,520.891   C 60.700089,516.32003 60.700089,516.32003 60.700089,516.32003   C 55.210933,521.80919 55.210933,521.80919 55.210933,521.80919   C 59.781903,528.21653 59.781903,528.21653 59.781903,528.21653   C 61.159182,529.13472 61.159182,530.97109 60.240996,532.7875   C 59.781903,534.16478 58.863717,535.08296 58.863717,536.46024   C 57.945531,538.29662 56.588212,539.6739 55.210933,539.6739   C 47.446272,541.03121 47.446272,541.03121 47.446272,541.03121   C 47.446272,548.35674 47.446272,548.35674 47.446272,548.35674   C 55.210933,549.73402 55.210933,549.73402 55.210933,549.73402   C 56.588212,549.73402 57.945531,551.1113 58.863717,552.48858   C 58.863717,553.86586 59.781903,555.22318 60.240996,556.60046   C 61.159182,557.97774 61.159182,559.81411 59.781903,561.19139   C 55.210933,567.59873 55.210933,567.59873 55.210933,567.59873   C 60.700089,572.62879 60.700089,572.62879 60.700089,572.62879   C 66.628378,568.05782 66.628378,568.05782 66.628378,568.05782   C 68.005658,567.13964 69.84203,567.13964 71.658442,568.05782   C 73.035721,568.51692 73.953907,568.97601 75.311226,569.4351   C 77.147598,569.8942 78.504917,571.25152 78.504917,573.08789   L 79.882196,580.87251   z  M 55.210933,567.59873   C 55.210933,567.59873 55.210933,567.59873 55.210933,567.59873   z  M 111.39993,567.59873   C 111.39993,567.59873 111.39993,567.59873 111.39993,567.59873   z  M 119.62369,548.35674   C 119.62369,548.35674 119.62369,548.35674 119.62369,548.35674   z  M 47.446272,548.35674   C 47.446272,548.35674 47.446272,548.35674 47.446272,548.35674   z  M 119.62369,548.35674   C 119.62369,548.35674 119.62369,548.35674 119.62369,548.35674   z  M 47.446272,548.35674   C 47.446272,548.35674 47.446272,548.35674 47.446272,548.35674   C 47.446272,548.35674 47.446272,548.35674 47.446272,548.35674   z  M 106.38983,516.32003   C 106.38983,516.32003 106.38983,516.32003 106.38983,516.32003   C 106.38983,516.32003 106.38983,516.32003 106.38983,516.32003   z  M 105.93074,516.32003   C 106.38983,516.32003 106.38983,516.32003 106.38983,516.32003   L 105.93074,516.32003   z  M 83.53498,560.2732   C 79.423103,560.2732 75.311226,558.89592 72.117535,555.68227   C 68.464751,552.02949 67.087471,546.54033 68.005658,541.03121   C 69.382937,535.08296 73.953907,530.51199 79.882196,529.13472   C 85.371352,528.21653 90.840548,529.59381 94.513293,533.24659   C 98.62517,537.37843 99.982489,542.86759 98.62517,548.35674   C 97.706984,553.86586 93.136014,558.89592 87.187764,559.81411   C 85.830445,560.2732 84.453166,560.2732 83.53498,560.2732   z  M 83.53498,532.32841   C 82.616794,532.32841 81.718568,532.7875 80.800382,532.7875   C 76.229412,533.70569 72.576628,537.37843 71.658442,541.9494   C 70.740255,546.08124 72.117535,550.19312 74.852133,553.40677   C 78.065784,556.14136 82.177661,557.51864 86.289538,556.60046   C 86.289538,556.60046 86.289538,556.60046 86.289538,556.60046   C 90.840548,555.68227 94.513293,552.02949 95.411518,547.43856   C 96.329705,543.32668 94.952425,539.2148 92.217827,536.00115   C 89.942323,533.70569 86.728671,532.32841 83.53498,532.32841   z "
     id="path828" />
  <path
     style="fill:#2f526b;fill-rule:evenodd;fill-opacity:1;stroke:none;"
     d="  M 23.473629,867.68592   C 23.473629,836.42767 48.703788,811.11767 79.842275,811.11767   C 110.98076,811.11767 136.21092,836.42767 136.21092,867.68592   C 136.21092,898.94417 110.98076,924.25417 79.842275,924.25417   C 48.703788,924.25417 23.473629,898.94417 23.473629,867.68592   z "
     id="path830" />
  <path
     style="fill:#ffffff;fill-rule:evenodd;fill-opacity:1;stroke:none;"
     d="  M 80.760461,891.71845   C 75.291265,891.71845 70.89994,891.35916 66.189246,890.28128   C 64.712164,889.88207 63.275003,889.52278 62.197132,888.8042   C 59.282889,887.72633 58.524387,885.88996 58.165097,884.4528   C 58.165097,882.97572 58.524387,881.13934 60.001469,879.70218   C 62.197132,877.86581 64.712164,876.06936 68.384908,874.23299   C 69.462779,873.8737 70.54065,873.51441 71.658442,873.15512   C 72.736312,872.79583 72.736312,872.79583 72.736312,872.79583   C 73.454893,872.43654 73.814183,871.67803 74.213394,870.95945   C 74.213394,870.60016 74.213394,869.88158 73.454893,869.52229   C 69.462779,865.49026 68.025618,860.77956 68.025618,854.95108   C 68.384908,849.48188 71.299151,845.84906 77.486928,844.37198   C 78.564798,844.01269 79.642669,843.6534 80.760461,843.6534   C 81.838332,843.6534 83.315414,844.01269 84.393284,844.37198   C 90.22177,845.84906 93.495304,849.48188 93.495304,854.95108   C 93.854594,860.77956 92.018222,865.49026 88.026108,869.52229   C 87.666818,869.88158 87.307527,870.60016 87.666818,870.95945   C 87.666818,871.67803 88.385398,872.43654 89.1439,872.79583   C 89.86248,873.15512 89.86248,873.15512 89.86248,873.15512   C 90.940351,873.51441 92.018222,873.8737 93.136014,874.23299   C 96.768837,876.06936 99.32379,877.86581 101.51945,879.70218   C 102.59732,881.13934 103.3159,882.97572 102.95661,884.81209   C 102.59732,886.60854 101.51945,888.08562 99.68308,888.8042   C 99.68308,888.8042 99.68308,888.8042 99.68308,888.8042   C 98.245919,889.52278 96.768837,889.88207 95.331676,890.28128   C 90.940351,891.35916 86.229657,891.71845 80.760461,891.71845   z  M 80.760461,846.56764   C 80.001959,846.56764 78.924089,846.56764 78.205508,846.92693   C 73.095603,848.0048 70.89994,850.55975 70.54065,854.95108   C 70.54065,860.02106 72.017732,864.0531 75.291265,867.68592   C 76.369136,868.76379 77.127637,870.24087 76.728426,871.67803   C 76.369136,873.15512 75.291265,874.59228 73.454893,874.95157   C 72.736312,875.35078 72.736312,875.35078 72.736312,875.35078   C 71.658442,875.71007 70.54065,876.06936 69.462779,876.78794   C 66.189246,878.2251 63.634293,879.70218 61.797921,881.89785   C 61.07934,882.61643 60.72005,883.33501 61.07934,884.05359   C 61.07934,885.17138 61.797921,885.88996 63.275003,886.60854   C 64.352873,886.96783 65.470665,887.36704 66.907826,887.72633   C 71.299151,888.8042 75.650555,888.8042 80.760461,889.16349   C 86.229657,888.8042 90.581061,888.8042 94.932465,887.72633   C 96.050257,887.36704 97.487417,886.96783 98.605209,886.60854   C 99.68308,885.88996 100.40166,885.17138 100.40166,884.05359   C 100.76095,883.33501 100.40166,882.25714 99.68308,881.89785   C 97.846708,879.70218 95.690966,878.2251 92.018222,876.78794   C 90.940351,876.06936 89.86248,875.71007 89.1439,875.35078   C 88.026108,874.95157 88.026108,874.95157 88.026108,874.95157   C 86.588947,874.59228 85.471155,873.15512 85.111865,871.67803   C 84.752575,870.24087 85.111865,868.76379 86.229657,867.68592   C 89.50319,864.41239 91.299641,860.02106 90.940351,854.95108   C 90.940351,850.55975 88.385398,848.0048 83.674704,846.92693   C 82.556912,846.56764 81.838332,846.56764 80.760461,846.56764   z  M 98.9645,887.72633   C 98.9645,887.72633 98.9645,887.72633 98.9645,887.72633   z  M 110.98076,891.71845   C 110.22226,891.71845 110.22226,891.71845 110.22226,891.71845   C 107.70723,891.71845 106.94873,891.71845 104.03448,891.35916   C 103.3159,891.35916 102.95661,890.64058 102.95661,889.88207   C 102.95661,889.16349 103.67519,888.44491 104.4337,888.8042   C 106.94873,888.8042 107.70723,888.8042 110.22226,889.16349   C 110.98076,889.16349 110.98076,889.16349 110.98076,889.16349   C 114.61359,888.8042 117.88712,888.8042 120.80136,888.08562   C 121.51994,888.08562 122.63773,887.72633 123.35631,887.36704   C 123.7156,886.96783 124.43419,886.60854 124.43419,885.88996   C 124.43419,885.53067 124.07489,884.81209 124.07489,884.81209   C 122.63773,883.33501 121.16065,882.25714 118.6057,881.13934   C 117.88712,880.78005 117.16854,880.42076 116.44996,880.42076   C 116.05075,880.06147 116.05075,880.06147 116.05075,880.06147   C 114.61359,879.70218 113.895,878.62431 113.53571,877.50652   C 113.53571,876.42865 113.895,874.95157 114.61359,874.23299   C 116.80925,872.03733 117.88712,869.12308 117.88712,865.84955   C 117.52783,862.93531 116.05075,861.13885 112.77721,860.38035   C 112.41792,860.38035 111.69934,860.02106 110.98076,860.02106   C 110.62147,860.02106 109.86297,860.38035 109.14439,860.38035   C 106.23015,861.13885 104.4337,862.93531 104.4337,865.84955   C 104.4337,869.12308 105.51157,872.03733 107.70723,874.23299   C 108.42581,875.35078 109.14439,876.42865 108.7851,877.50652   C 108.42581,878.62431 107.70723,879.34289 106.58944,879.70218   C 106.23015,880.06147 106.23015,880.06147 106.23015,880.06147   C 105.87086,880.06147 105.15228,879.70218 104.79299,879.34289   C 104.4337,878.62431 104.79299,877.86581 105.51157,877.50652   C 105.51157,877.50652 105.51157,877.50652 105.51157,877.50652   C 105.87086,877.14723 106.23015,877.14723 106.23015,877.14723   C 106.23015,876.78794 106.23015,876.42865 105.87086,876.06936   C 102.95661,873.15512 101.87874,869.88158 101.87874,865.84955   C 101.87874,862.93531 103.3159,859.30248 108.7851,857.86532   C 109.50368,857.86532 110.22226,857.46611 110.98076,857.46611   C 112.05863,857.46611 112.77721,857.86532 113.53571,857.86532   C 118.96499,859.30248 120.44207,862.93531 120.44207,865.84955   C 120.44207,869.88158 119.3642,873.51441 116.44996,876.06936   C 116.44996,876.42865 116.05075,876.42865 116.05075,876.78794   C 116.05075,877.14723 116.44996,877.50652 117.16854,877.50652   C 117.52783,877.86581 117.52783,877.86581 117.52783,877.86581   C 118.24641,878.2251 118.96499,878.62431 119.72349,878.9836   C 122.63773,880.06147 124.43419,881.13934 125.91127,882.61643   C 126.62985,883.6943 126.98914,885.17138 126.98914,886.60854   C 126.62985,887.72633 125.91127,889.16349 124.43419,889.52278   C 123.35631,890.28128 122.23852,890.64058 121.16065,890.64058   C 118.24641,891.35916 114.97288,891.71845 110.98076,891.71845   z  M 50.54016,891.71845   C 46.148835,891.71845 42.516011,891.35916 39.242478,890.64058   C 37.805317,890.28128 36.687525,889.88207 35.968945,889.52278   C 34.132572,888.8042 33.054702,887.36704 32.695412,885.88996   C 32.695412,884.81209 33.054702,883.33501 34.132572,882.25714   C 35.968945,880.42076 37.805317,878.9836 40.679639,877.86581   C 41.438141,877.50652 42.516011,877.14723 43.234592,876.78794   C 43.993093,876.42865 43.993093,876.42865 43.993093,876.42865   C 44.352384,876.06936 44.711674,875.71007 45.070964,875.35078   C 45.070964,874.95157 44.711674,874.59228 44.352384,874.23299   C 41.438141,871.31874 39.961059,867.68592 40.320349,862.93531   C 40.320349,860.02106 41.797431,856.02895 47.625917,854.59179   C 48.703788,854.19258 49.422368,854.19258 50.54016,854.19258   C 51.25874,854.19258 52.336611,854.19258 53.095113,854.59179   C 58.923599,856.02895 60.36076,860.02106 60.36076,862.93531   C 60.72005,867.68592 59.282889,871.31874 56.368646,874.59228   C 56.009356,874.59228 55.610144,874.95157 56.009356,875.35078   C 56.009356,875.71007 56.368646,876.06936 56.727936,876.42865   C 57.446517,876.78794 57.446517,876.78794 57.446517,876.78794   C 58.165097,876.78794 58.524387,877.86581 58.165097,878.2251   C 57.805807,878.9836 57.087226,879.34289 56.727936,878.9836   C 56.009356,878.9836 56.009356,878.9836 56.009356,878.9836   C 54.532274,878.2251 53.454403,877.14723 53.454403,876.06936   C 53.095113,874.59228 53.454403,873.51441 54.532274,872.43654   C 57.087226,870.24087 58.165097,866.96734 57.805807,863.2946   C 57.805807,860.02106 56.009356,857.86532 52.336611,857.10682   C 51.618031,856.74753 50.89945,856.74753 50.54016,856.74753   C 49.781658,856.74753 49.063078,856.74753 48.344497,857.10682   C 44.711674,857.86532 42.875302,860.02106 42.875302,863.2946   C 42.875302,866.96734 43.993093,870.24087 46.508125,872.43654   C 47.266627,873.51441 47.625917,874.95157 47.625917,876.06936   C 47.266627,877.14723 46.148835,878.2251 44.711674,878.9836   C 44.352384,878.9836 44.352384,878.9836 44.352384,878.9836   C 43.234592,879.34289 42.516011,879.70218 41.797431,880.06147   C 39.242478,881.13934 37.406106,882.61643 35.968945,884.05359   C 35.609655,884.4528 35.250364,885.17138 35.250364,885.53067   C 35.609655,886.24925 35.968945,886.60854 37.046815,886.96783   C 37.805317,887.36704 38.523898,887.72633 39.601768,888.08562   C 42.875302,888.8042 46.148835,888.8042 50.54016,889.16349   C 52.695901,889.16349 54.891564,888.8042 56.727936,888.8042   C 57.446517,888.8042 58.165097,889.16349 58.165097,889.88207   C 58.165097,890.64058 57.805807,891.35916 57.087226,891.35916   C 54.891564,891.35916 53.095113,891.71845 50.54016,891.71845   z "
     id="path832" />
  <path
     style="fill:#61605e;fill-rule:evenodd;fill-opacity:1;stroke:none;"
     d="  M 30.419907,174.05616   C 30.419907,142.80789 55.650066,117.47793 86.788553,117.47793   C 117.91706,117.47793 143.14722,142.80789 143.14722,174.05616   C 143.14722,205.30443 117.91706,230.63439 86.788553,230.63439   C 55.650066,230.63439 30.419907,205.30443 30.419907,174.05616   z "
     id="path834" />
  <path
     style="fill:#ffffff;fill-rule:evenodd;fill-opacity:1;stroke:none;"
     d="  M 91.758734,213.66791   C 81.009968,213.66791 81.009968,213.66791 81.009968,213.66791   C 80.211545,213.66791 79.413123,212.86948 79.413123,212.07106   C 79.413123,211.27264 80.211545,210.4842 81.009968,210.4842   C 91.758734,210.4842 91.758734,210.4842 91.758734,210.4842   C 92.557157,210.4842 93.35558,211.27264 93.35558,212.07106   C 93.35558,212.86948 92.557157,213.66791 91.758734,213.66791   z  M 94.952425,208.48814   C 77.826257,208.48814 77.826257,208.48814 77.826257,208.48814   C 77.027835,208.48814 76.229412,207.68972 76.229412,206.90127   C 76.229412,206.10285 77.027835,205.30443 77.826257,205.30443   C 94.952425,205.30443 94.952425,205.30443 94.952425,205.30443   C 95.740868,205.30443 96.53929,206.10285 96.53929,206.90127   C 96.53929,207.68972 95.740868,208.48814 94.952425,208.48814   z  M 86.189736,202.91914   C 82.996045,202.91914 79.812334,202.91914 79.812334,202.91914   C 79.812334,202.91914 79.812334,202.91914 79.812334,202.91914   C 76.628623,202.91914 75.031778,201.72151 74.632566,198.93701   C 74.243335,198.13859 74.243335,196.94095 74.243335,195.7533   C 74.243335,194.15645 74.243335,192.56959 73.444913,191.37195   C 71.049644,187.38982 69.86199,184.60532 67.466722,180.22397   C 65.081434,175.85261 63.085377,169.47521 64.283011,163.507   C 66.269088,155.94194 74.243335,148.38687 86.189736,148.38687   C 97.736925,148.38687 106.1004,155.94194 107.69725,163.507   C 109.28411,169.47521 106.89883,175.85261 104.90277,180.22397   C 102.51748,184.60532 100.92064,187.38982 98.934559,191.37195   C 98.136136,192.56959 98.136136,194.15645 98.136136,195.7533   C 98.136136,196.94095 98.136136,198.13859 97.736925,198.93701   C 96.938502,201.72151 95.740868,202.91914 92.557157,202.91914   C 92.557157,202.91914 89.373446,202.91914 86.189736,202.91914   z  M 79.812334,199.73543   C 80.211545,199.73543 92.157946,199.73543 92.557157,199.73543   C 94.553214,199.73543 94.553214,199.73543 94.952425,198.5378   C 94.952425,197.73937 94.952425,196.55172 94.952425,195.7533   C 94.952425,193.75724 95.351637,191.77116 96.140079,190.17432   C 98.535347,185.80295 100.12221,183.01845 102.11827,178.63711   C 103.71511,175.85261 106.49961,169.87442 104.90277,164.30542   C 103.3159,157.938 96.140079,151.17137 86.189736,151.17137   C 76.229412,151.17137 69.063568,157.938 67.466722,164.30542   C 65.869877,169.87442 68.265145,175.85261 70.251222,178.63711   C 72.247278,183.01845 73.844124,185.80295 76.229412,190.17432   C 77.027835,191.77116 77.027835,193.75724 77.027835,195.7533   C 77.427046,196.55172 77.427046,197.73937 77.427046,198.5378   C 77.826257,199.73543 77.826257,199.73543 79.812334,199.73543   C 79.812334,199.73543 79.812334,199.73543 79.812334,199.73543   z  M 60.300878,170.67284   C 54.322688,170.67284 54.322688,170.67284 54.322688,170.67284   C 53.524265,170.67284 52.735822,169.87442 52.735822,169.08598   C 52.735822,168.28755 53.524265,167.88834 54.322688,167.88834   C 60.300878,167.88834 60.300878,167.88834 60.300878,167.88834   C 61.099301,167.88834 61.498512,168.28755 61.498512,169.08598   C 61.498512,169.87442 61.099301,170.67284 60.300878,170.67284   z  M 119.24444,169.47521   C 112.07859,169.47521 112.07859,169.47521 112.07859,169.47521   C 111.28017,169.47521 110.48175,169.08598 110.48175,168.28755   C 110.48175,167.08992 111.28017,166.69071 112.07859,166.69071   C 119.24444,166.69071 119.24444,166.69071 119.24444,166.69071   C 120.04286,166.69071 120.84128,167.08992 120.84128,168.28755   C 120.84128,169.08598 120.04286,169.47521 119.24444,169.47521   z  M 73.045701,168.28755   C 72.64649,168.28755 72.64649,168.28755 72.64649,168.28755   C 71.848067,168.28755 71.049644,167.48913 71.448856,166.69071   C 72.64649,161.12171 78.6147,155.55271 86.988158,155.55271   C 86.988158,155.55271 86.988158,155.55271 86.988158,155.55271   C 87.776601,155.55271 88.575024,156.34115 88.575024,157.13958   C 88.575024,157.938 87.776601,158.73642 86.988158,158.73642   C 80.211545,158.73642 75.430989,163.10779 74.243335,167.08992   C 74.243335,167.88834 73.444913,168.28755 73.045701,168.28755   z  M 104.90277,152.35902   C 104.50356,152.35902 104.50356,151.96979 104.10435,151.57058   C 103.3159,151.17137 103.3159,150.37294 104.10435,149.57452   C 108.8849,144.80395 108.8849,144.80395 108.8849,144.80395   C 109.68332,144.00552 110.48175,144.00552 111.28017,144.80395   C 111.67938,145.20316 111.67938,145.9916 111.28017,146.79002   C 106.1004,151.57058 106.1004,151.57058 106.1004,151.57058   C 105.70119,151.96979 105.30198,152.35902 104.90277,152.35902   z  M 67.466722,152.35902   C 67.067511,152.35902 66.668299,151.96979 66.668299,151.57058   C 61.498512,146.79002 61.498512,146.79002 61.498512,146.79002   C 61.099301,145.9916 61.099301,145.20316 61.498512,144.80395   C 62.286955,144.00552 63.085377,144.00552 63.484589,144.80395   C 68.664356,149.57452 68.664356,149.57452 68.664356,149.57452   C 69.063568,150.37294 69.063568,151.17137 68.664356,151.57058   C 68.265145,151.96979 67.865934,152.35902 67.466722,152.35902   z  M 86.189736,145.59239   C 85.391313,145.59239 84.59289,144.80395 84.59289,144.00552   C 84.59289,135.64204 84.59289,135.64204 84.59289,135.64204   C 84.59289,134.8536 85.391313,134.45439 86.189736,134.45439   C 86.988158,134.45439 87.776601,134.8536 87.776601,135.64204   C 87.776601,144.00552 87.776601,144.00552 87.776601,144.00552   C 87.776601,144.80395 86.988158,145.59239 86.189736,145.59239   z "
     id="path836" />
  <text
     xml:space="preserve"
     style="font-size:31.937500px;font-style:normal;font-variant:normal;font-weight:700;font-stretch:Normal;line-height:125.000000%;letter-spacing:0px;word-spacing:0px;fill:#000000;fill-opacity:1;stroke:none;font-family:Montserrat;text-align:start;text-anchor:start;"
     transform="matrix(1.000000,-0.000000,0.000000,1.000000,160.730355,855.223821)"
     x="0.000000"
     y="0.000000"
     id="text842"><tspan
       sodipodi:role="line"
       x="0.000000"
       y="0.000000"
       id="tspan840"><tspan
         dx="0.000000"
         dy="0.000000"
         style="fill:#000000;font-size:31.937500px;font-style:normal;font-variant:normal;font-weight:700;font-stretch:Normal;font-family:Montserrat;"
         id="tspan838">docente</tspan></tspan></text>
  <text
     xml:space="preserve"
     style="font-size:31.937500px;font-style:normal;font-variant:normal;font-weight:700;font-stretch:Normal;line-height:125.000000%;letter-spacing:0px;word-spacing:0px;fill:#000000;fill-opacity:1;stroke:none;font-family:Montserrat;text-align:start;text-anchor:start;"
     transform="matrix(1.000000,-0.000000,0.000000,1.000000,303.807711,855.223821)"
     x="0.000000"
     y="0.000000"
     id="text848"><tspan
       sodipodi:role="line"
       x="0.000000"
       y="0.000000"
       id="tspan846"><tspan
         dx="0.000000"
         dy="0.000000"
         style="fill:#000000;font-size:31.937500px;font-style:normal;font-variant:normal;font-weight:700;font-stretch:Normal;font-family:Montserrat;"
         id="tspan844">como</tspan></tspan></text>
  <text
     xml:space="preserve"
     style="font-size:31.937500px;font-style:normal;font-variant:normal;font-weight:700;font-stretch:Normal;line-height:125.000000%;letter-spacing:0px;word-spacing:0px;fill:#000000;fill-opacity:1;stroke:none;font-family:Montserrat;text-align:start;text-anchor:start;"
     transform="matrix(1.000000,-0.000000,0.000000,1.000000,396.744138,855.223821)"
     x="0.000000"
     y="0.000000"
     id="text854"><tspan
       sodipodi:role="line"
       x="0.000000"
       y="0.000000"
       id="tspan852"><tspan
         dx="0.000000"
         dy="0.000000"
         style="fill:#000000;font-size:31.937500px;font-style:normal;font-variant:normal;font-weight:700;font-stretch:Normal;font-family:Montserrat;"
         id="tspan850">…</tspan></tspan></text>
  <text
     xml:space="preserve"
     style="font-size:31.937500px;font-style:normal;font-variant:normal;font-weight:700;font-stretch:Normal;line-height:125.000000%;letter-spacing:0px;word-spacing:0px;fill:#000000;fill-opacity:1;stroke:none;font-family:Montserrat;text-align:start;text-anchor:start;"
     transform="matrix(1.000000,-0.000000,0.000000,1.000000,160.730355,901.532340)"
     x="0.000000"
     y="0.000000"
     id="text860"><tspan
       sodipodi:role="line"
       x="0.000000"
       y="0.000000"
       id="tspan858"><tspan
         dx="0.000000"
         dy="0.000000"
         style="fill:#000000;font-size:31.937500px;font-style:normal;font-variant:normal;font-weight:700;font-stretch:Normal;font-family:Montserrat;"
         id="tspan856">PARTE DE COMUNIDAD</tspan></tspan></text>
  <text
     xml:space="preserve"
     style="font-size:31.937500px;font-style:normal;font-variant:normal;font-weight:700;font-stretch:Normal;line-height:125.000000%;letter-spacing:0px;word-spacing:0px;fill:#000000;fill-opacity:1;stroke:none;font-family:Montserrat;text-align:start;text-anchor:start;"
     transform="matrix(1.000000,-0.000000,0.000000,1.000000,160.730355,529.855245)"
     x="0.000000"
     y="0.000000"
     id="text866"><tspan
       sodipodi:role="line"
       x="0.000000"
       y="0.000000"
       id="tspan864"><tspan
         dx="0.000000"
         dy="0.000000"
         style="fill:#000000;font-size:31.937500px;font-style:normal;font-variant:normal;font-weight:700;font-stretch:Normal;font-family:Montserrat;"
         id="tspan862">docente</tspan></tspan></text>
  <text
     xml:space="preserve"
     style="font-size:31.937500px;font-style:normal;font-variant:normal;font-weight:700;font-stretch:Normal;line-height:125.000000%;letter-spacing:0px;word-spacing:0px;fill:#000000;fill-opacity:1;stroke:none;font-family:Montserrat;text-align:start;text-anchor:start;"
     transform="matrix(1.000000,-0.000000,0.000000,1.000000,303.807711,529.855245)"
     x="0.000000"
     y="0.000000"
     id="text872"><tspan
       sodipodi:role="line"
       x="0.000000"
       y="0.000000"
       id="tspan870"><tspan
         dx="0.000000"
         dy="0.000000"
         style="fill:#000000;font-size:31.937500px;font-style:normal;font-variant:normal;font-weight:700;font-stretch:Normal;font-family:Montserrat;"
         id="tspan868">como</tspan></tspan></text>
  <text
     xml:space="preserve"
     style="font-size:31.937500px;font-style:normal;font-variant:normal;font-weight:700;font-stretch:Normal;line-height:125.000000%;letter-spacing:0px;word-spacing:0px;fill:#000000;fill-opacity:1;stroke:none;font-family:Montserrat;text-align:start;text-anchor:start;"
     transform="matrix(1.000000,-0.000000,0.000000,1.000000,396.744138,529.855245)"
     x="0.000000"
     y="0.000000"
     id="text878"><tspan
       sodipodi:role="line"
       x="0.000000"
       y="0.000000"
       id="tspan876"><tspan
         dx="0.000000"
         dy="0.000000"
         style="fill:#000000;font-size:31.937500px;font-style:normal;font-variant:normal;font-weight:700;font-stretch:Normal;font-family:Montserrat;"
         id="tspan874">…</tspan></tspan></text>
  <text
     xml:space="preserve"
     style="font-size:31.937500px;font-style:normal;font-variant:normal;font-weight:700;font-stretch:Normal;line-height:125.000000%;letter-spacing:0px;word-spacing:0px;fill:#000000;fill-opacity:1;stroke:none;font-family:Montserrat;text-align:start;text-anchor:start;"
     transform="matrix(1.000000,-0.000000,0.000000,1.000000,160.730355,576.163765)"
     x="0.000000"
     y="0.000000"
     id="text884"><tspan
       sodipodi:role="line"
       x="0.000000"
       y="0.000000"
       id="tspan882"><tspan
         dx="0.000000"
         dy="0.000000"
         style="fill:#000000;font-size:31.937500px;font-style:normal;font-variant:normal;font-weight:700;font-stretch:Normal;font-family:Montserrat;"
         id="tspan880">MIEMBRO DE </tspan></tspan></text>
  <text
     xml:space="preserve"
     style="font-size:31.937500px;font-style:normal;font-variant:normal;font-weight:700;font-stretch:Normal;line-height:125.000000%;letter-spacing:0px;word-spacing:0px;fill:#000000;fill-opacity:1;stroke:none;font-family:Montserrat;text-align:start;text-anchor:start;"
     transform="matrix(1.000000,-0.000000,0.000000,1.000000,390.835810,576.163765)"
     x="0.000000"
     y="0.000000"
     id="text890"><tspan
       sodipodi:role="line"
       x="0.000000"
       y="0.000000"
       id="tspan888"><tspan
         dx="0.000000"
         dy="0.000000"
         style="fill:#000000;font-size:31.937500px;font-style:normal;font-variant:normal;font-weight:700;font-stretch:Normal;font-family:Montserrat;"
         id="tspan886">CENTRO</tspan></tspan></text>
  <text
     xml:space="preserve"
     style="font-size:31.937500px;font-style:normal;font-variant:normal;font-weight:700;font-stretch:Normal;line-height:125.000000%;letter-spacing:0px;word-spacing:0px;fill:#000000;fill-opacity:1;stroke:none;font-family:Montserrat;text-align:start;text-anchor:start;"
     transform="matrix(1.000000,-0.000000,0.000000,1.000000,160.730355,167.611254)"
     x="0.000000"
     y="0.000000"
     id="text896"><tspan
       sodipodi:role="line"
       x="0.000000"
       y="0.000000"
       id="tspan894"><tspan
         dx="0.000000"
         dy="0.000000"
         style="fill:#000000;font-size:31.937500px;font-style:normal;font-variant:normal;font-weight:700;font-stretch:Normal;font-family:Montserrat;"
         id="tspan892">docente</tspan></tspan></text>
  <text
     xml:space="preserve"
     style="font-size:31.937500px;font-style:normal;font-variant:normal;font-weight:700;font-stretch:Normal;line-height:125.000000%;letter-spacing:0px;word-spacing:0px;fill:#000000;fill-opacity:1;stroke:none;font-family:Montserrat;text-align:start;text-anchor:start;"
     transform="matrix(1.000000,-0.000000,0.000000,1.000000,303.807711,167.611254)"
     x="0.000000"
     y="0.000000"
     id="text902"><tspan
       sodipodi:role="line"
       x="0.000000"
       y="0.000000"
       id="tspan900"><tspan
         dx="0.000000"
         dy="0.000000"
         style="fill:#000000;font-size:31.937500px;font-style:normal;font-variant:normal;font-weight:700;font-stretch:Normal;font-family:Montserrat;"
         id="tspan898">como</tspan></tspan></text>
  <text
     xml:space="preserve"
     style="font-size:31.937500px;font-style:normal;font-variant:normal;font-weight:700;font-stretch:Normal;line-height:125.000000%;letter-spacing:0px;word-spacing:0px;fill:#000000;fill-opacity:1;stroke:none;font-family:Montserrat;text-align:start;text-anchor:start;"
     transform="matrix(1.000000,-0.000000,0.000000,1.000000,396.744138,167.611254)"
     x="0.000000"
     y="0.000000"
     id="text908"><tspan
       sodipodi:role="line"
       x="0.000000"
       y="0.000000"
       id="tspan906"><tspan
         dx="0.000000"
         dy="0.000000"
         style="fill:#000000;font-size:31.937500px;font-style:normal;font-variant:normal;font-weight:700;font-stretch:Normal;font-family:Montserrat;"
         id="tspan904">…</tspan></tspan></text>
  <text
     xml:space="preserve"
     style="font-size:31.937500px;font-style:normal;font-variant:normal;font-weight:700;font-stretch:Normal;line-height:125.000000%;letter-spacing:0px;word-spacing:0px;fill:#000000;fill-opacity:1;stroke:none;font-family:Montserrat;text-align:start;text-anchor:start;"
     transform="matrix(1.000000,-0.000000,0.000000,1.000000,160.730355,213.919773)"
     x="0.000000"
     y="0.000000"
     id="text914"><tspan
       sodipodi:role="line"
       x="0.000000"
       y="0.000000"
       id="tspan912"><tspan
         dx="0.000000"
         dy="0.000000"
         style="fill:#000000;font-size:31.937500px;font-style:normal;font-variant:normal;font-weight:700;font-stretch:Normal;font-family:Montserrat;"
         id="tspan910">ESPECIALISTA</tspan></tspan></text>
  <text
     xml:space="preserve"
     style="font-size:23.937500px;font-style:normal;font-variant:normal;font-weight:400;font-stretch:Normal;line-height:125.000000%;letter-spacing:0px;word-spacing:0px;fill:#000000;fill-opacity:1;stroke:none;font-family:Roboto;text-align:start;text-anchor:start;"
     transform="matrix(1.000000,-0.000000,0.000000,1.000000,40.074012,292.477028)"
     x="0.000000"
     y="0.000000"
     id="text920"><tspan
       sodipodi:role="line"
       x="0.000000"
       y="0.000000"
       id="tspan918"><tspan
         dx="0.000000"
         dy="0.000000"
         style="fill:#000000;font-size:23.937500px;font-style:normal;font-variant:normal;font-weight:400;font-stretch:Normal;font-family:Roboto;"
         id="tspan916">Elección contenidos curriculares</tspan></tspan></text>
  <text
     xml:space="preserve"
     style="font-size:23.937500px;font-style:normal;font-variant:normal;font-weight:400;font-stretch:Normal;line-height:125.000000%;letter-spacing:0px;word-spacing:0px;fill:#000000;fill-opacity:1;stroke:none;font-family:Roboto;text-align:start;text-anchor:start;"
     transform="matrix(1.000000,-0.000000,0.000000,1.000000,40.074012,329.204474)"
     x="0.000000"
     y="0.000000"
     id="text926"><tspan
       sodipodi:role="line"
       x="0.000000"
       y="0.000000"
       id="tspan924"><tspan
         dx="0.000000"
         dy="0.000000"
         style="fill:#000000;font-size:23.937500px;font-style:normal;font-variant:normal;font-weight:400;font-stretch:Normal;font-family:Roboto;"
         id="tspan922">Métodos didácticos</tspan></tspan></text>
  <text
     xml:space="preserve"
     style="font-size:23.937500px;font-style:normal;font-variant:normal;font-weight:400;font-stretch:Normal;line-height:125.000000%;letter-spacing:0px;word-spacing:0px;fill:#000000;fill-opacity:1;stroke:none;font-family:Roboto;text-align:start;text-anchor:start;"
     transform="matrix(1.000000,-0.000000,0.000000,1.000000,40.074012,365.931921)"
     x="0.000000"
     y="0.000000"
     id="text932"><tspan
       sodipodi:role="line"
       x="0.000000"
       y="0.000000"
       id="tspan930"><tspan
         dx="0.000000"
         dy="0.000000"
         style="fill:#000000;font-size:23.937500px;font-style:normal;font-variant:normal;font-weight:400;font-stretch:Normal;font-family:Roboto;"
         id="tspan928">Conexión otras áreas de conocimiento</tspan></tspan></text>
  <text
     xml:space="preserve"
     style="font-size:23.937500px;font-style:normal;font-variant:normal;font-weight:400;font-stretch:Normal;line-height:125.000000%;letter-spacing:0px;word-spacing:0px;fill:#000000;fill-opacity:1;stroke:none;font-family:Roboto;text-align:start;text-anchor:start;"
     transform="matrix(1.000000,-0.000000,0.000000,1.000000,40.074012,402.659367)"
     x="0.000000"
     y="0.000000"
     id="text938"><tspan
       sodipodi:role="line"
       x="0.000000"
       y="0.000000"
       id="tspan936"><tspan
         dx="0.000000"
         dy="0.000000"
         style="fill:#000000;font-size:23.937500px;font-style:normal;font-variant:normal;font-weight:400;font-stretch:Normal;font-family:Roboto;"
         id="tspan934">Autonomía profesional y libertad de cátedra</tspan></tspan></text>
  <text
     xml:space="preserve"
     style="font-size:23.937500px;font-style:normal;font-variant:normal;font-weight:400;font-stretch:Normal;line-height:125.000000%;letter-spacing:0px;word-spacing:0px;fill:#000000;fill-opacity:1;stroke:none;font-family:Roboto;text-align:start;text-anchor:start;"
     transform="matrix(1.000000,-0.000000,0.000000,1.000000,40.074012,439.386814)"
     x="0.000000"
     y="0.000000"
     id="text944"><tspan
       sodipodi:role="line"
       x="0.000000"
       y="0.000000"
       id="tspan942"><tspan
         dx="0.000000"
         dy="0.000000"
         style="fill:#000000;font-size:23.937500px;font-style:normal;font-variant:normal;font-weight:400;font-stretch:Normal;font-family:Roboto;"
         id="tspan940">Evaluación y calificación </tspan></tspan></text>
  <text
     xml:space="preserve"
     style="font-size:23.937500px;font-style:normal;font-variant:normal;font-weight:400;font-stretch:Normal;line-height:125.000000%;letter-spacing:0px;word-spacing:0px;fill:#000000;fill-opacity:1;stroke:none;font-family:Roboto;text-align:start;text-anchor:start;"
     transform="matrix(1.000000,-0.000000,0.000000,1.000000,36.381043,654.432975)"
     x="0.000000"
     y="0.000000"
     id="text950"><tspan
       sodipodi:role="line"
       x="0.000000"
       y="0.000000"
       id="tspan948"><tspan
         dx="0.000000"
         dy="0.000000"
         style="fill:#000000;font-size:23.937500px;font-style:normal;font-variant:normal;font-weight:400;font-stretch:Normal;font-family:Roboto;"
         id="tspan946">Responsabilidad con la estructura general del </tspan></tspan></text>
  <text
     xml:space="preserve"
     style="font-size:23.937500px;font-style:normal;font-variant:normal;font-weight:400;font-stretch:Normal;line-height:125.000000%;letter-spacing:0px;word-spacing:0px;fill:#000000;fill-opacity:1;stroke:none;font-family:Roboto;text-align:start;text-anchor:start;"
     transform="matrix(1.000000,-0.000000,0.000000,1.000000,36.381043,683.176194)"
     x="0.000000"
     y="0.000000"
     id="text956"><tspan
       sodipodi:role="line"
       x="0.000000"
       y="0.000000"
       id="tspan954"><tspan
         dx="0.000000"
         dy="0.000000"
         style="fill:#000000;font-size:23.937500px;font-style:normal;font-variant:normal;font-weight:400;font-stretch:Normal;font-family:Roboto;"
         id="tspan952">centro</tspan></tspan></text>
  <text
     xml:space="preserve"
     style="font-size:23.937500px;font-style:normal;font-variant:normal;font-weight:400;font-stretch:Normal;line-height:125.000000%;letter-spacing:0px;word-spacing:0px;fill:#000000;fill-opacity:1;stroke:none;font-family:Roboto;text-align:start;text-anchor:start;"
     transform="matrix(1.000000,-0.000000,0.000000,1.000000,36.381043,719.903640)"
     x="0.000000"
     y="0.000000"
     id="text962"><tspan
       sodipodi:role="line"
       x="0.000000"
       y="0.000000"
       id="tspan960"><tspan
         dx="0.000000"
         dy="0.000000"
         style="fill:#000000;font-size:23.937500px;font-style:normal;font-variant:normal;font-weight:400;font-stretch:Normal;font-family:Roboto;"
         id="tspan958">Responsabilidad en la formación inicial y </tspan></tspan></text>
  <text
     xml:space="preserve"
     style="font-size:23.937500px;font-style:normal;font-variant:normal;font-weight:400;font-stretch:Normal;line-height:125.000000%;letter-spacing:0px;word-spacing:0px;fill:#000000;fill-opacity:1;stroke:none;font-family:Roboto;text-align:start;text-anchor:start;"
     transform="matrix(1.000000,-0.000000,0.000000,1.000000,36.381043,748.646859)"
     x="0.000000"
     y="0.000000"
     id="text968"><tspan
       sodipodi:role="line"
       x="0.000000"
       y="0.000000"
       id="tspan966"><tspan
         dx="0.000000"
         dy="0.000000"
         style="fill:#000000;font-size:23.937500px;font-style:normal;font-variant:normal;font-weight:400;font-stretch:Normal;font-family:Roboto;"
         id="tspan964">permanente</tspan></tspan></text>
  <text
     xml:space="preserve"
     style="font-size:23.937500px;font-style:normal;font-variant:normal;font-weight:400;font-stretch:Normal;line-height:125.000000%;letter-spacing:0px;word-spacing:0px;fill:#000000;fill-opacity:1;stroke:none;font-family:Roboto;text-align:start;text-anchor:start;"
     transform="matrix(1.000000,-0.000000,0.000000,1.000000,36.381043,996.761328)"
     x="0.000000"
     y="0.000000"
     id="text974"><tspan
       sodipodi:role="line"
       x="0.000000"
       y="0.000000"
       id="tspan972"><tspan
         dx="0.000000"
         dy="0.000000"
         style="fill:#000000;font-size:23.937500px;font-style:normal;font-variant:normal;font-weight:400;font-stretch:Normal;font-family:Roboto;"
         id="tspan970">Capacidad para el trabajo en equipo</tspan></tspan></text>
  <text
     xml:space="preserve"
     style="font-size:23.937500px;font-style:normal;font-variant:normal;font-weight:400;font-stretch:Normal;line-height:125.000000%;letter-spacing:0px;word-spacing:0px;fill:#000000;fill-opacity:1;stroke:none;font-family:Roboto;text-align:start;text-anchor:start;"
     transform="matrix(1.000000,-0.000000,0.000000,1.000000,36.381043,1033.488775)"
     x="0.000000"
     y="0.000000"
     id="text980"><tspan
       sodipodi:role="line"
       x="0.000000"
       y="0.000000"
       id="tspan978"><tspan
         dx="0.000000"
         dy="0.000000"
         style="fill:#000000;font-size:23.937500px;font-style:normal;font-variant:normal;font-weight:400;font-stretch:Normal;font-family:Roboto;"
         id="tspan976">Retorno a la sociedad</tspan></tspan></text>
</svg>
