<?xml version="1.0" encoding="UTF-8" standalone="no"?>
<svg
   xmlns:dc="http://purl.org/dc/elements/1.1/"
   xmlns:cc="http://creativecommons.org/ns#"
   xmlns:rdf="http://www.w3.org/1999/02/22-rdf-syntax-ns#"
   xmlns:svg="http://www.w3.org/2000/svg"
   xmlns="http://www.w3.org/2000/svg"
   xmlns:sodipodi="http://sodipodi.sourceforge.net/DTD/sodipodi-0.dtd"
   xmlns:inkscape="http://www.inkscape.org/namespaces/inkscape"
   version="1.0"
   width="290.94mm"
   height="152.3mm"
   id="svg1018"
   sodipodi:docname="etica.svg"
   inkscape:version="0.92.3 (2405546, 2018-03-11)">
  <metadata
     id="metadata1022">
    <rdf:RDF>
      <cc:Work
         rdf:about="">
        <dc:format>image/svg+xml</dc:format>
        <dc:type
           rdf:resource="http://purl.org/dc/dcmitype/StillImage" />
        <dc:title></dc:title>
      </cc:Work>
    </rdf:RDF>
  </metadata>
  <sodipodi:namedview
     pagecolor="#ffffff"
     bordercolor="#666666"
     borderopacity="1"
     objecttolerance="10"
     gridtolerance="10"
     guidetolerance="10"
     inkscape:pageopacity="0"
     inkscape:pageshadow="2"
     inkscape:window-width="724"
     inkscape:window-height="480"
     id="namedview1020"
     showgrid="false"
     inkscape:zoom="1.3022731"
     inkscape:cx="549.80788"
     inkscape:cy="287.81103"
     inkscape:window-x="0"
     inkscape:window-y="0"
     inkscape:window-maximized="1"
     inkscape:current-layer="svg1018" />
  <defs
     id="defs816">
    <pattern
       id="EMFhbasepattern"
       patternUnits="userSpaceOnUse"
       width="6"
       height="6"
       x="0"
       y="0" />
  </defs>
  <path
     style="fill:#ffffff;fill-rule:evenodd;fill-opacity:1;stroke:none;"
     d="  M 0.13330954,0.13330954   L 0.13330954,576.03054   L 1099.937,576.03054   L 1099.937,0.13330954   L 0.13330954,0.13330954   z "
     id="path818" />
  <path
     style="fill:#2f526b;fill-rule:evenodd;fill-opacity:1;stroke:none;"
     d="  M 826.95243,176.76846   C 826.95243,140.37495 856.34718,110.88021 892.60738,110.88021   C 928.86758,110.88021 958.26233,140.37495 958.26233,176.76846   C 958.26233,213.16196 928.86758,242.69003 892.60738,242.69003   C 856.34718,242.69003 826.95243,213.16196 826.95243,176.76846   z "
     id="path820" />
  <path
     style="fill:#61605e;fill-rule:evenodd;fill-opacity:1;stroke:none;"
     d="  M 93.283353,180.75108   C 93.283353,144.35757 122.67811,114.84617 158.9383,114.84617   C 195.1985,114.84617 224.59325,144.35757 224.59325,180.75108   C 224.59325,217.14458 195.1985,246.65598 158.9383,246.65598   C 122.67811,246.65598 93.283353,217.14458 93.283353,180.75108   z "
     id="path822" />
  <path
     style="fill:#e2412a;fill-rule:evenodd;fill-opacity:1;stroke:none;"
     d="  M 464.08385,178.16821   C 464.08385,141.7747 493.57859,112.24664 529.97209,112.24664   C 566.39893,112.24664 595.89366,141.7747 595.89366,178.16821   C 595.89366,214.56171 566.39893,244.05645 529.97209,244.05645   C 493.57859,244.05645 464.08385,214.56171 464.08385,178.16821   z "
     id="path824" />
  <text
     xml:space="preserve"
     style="font-size:92.000000px;font-style:normal;font-variant:normal;font-weight:400;font-stretch:Normal;line-height:125.000000%;letter-spacing:0px;word-spacing:0px;fill:#000000;fill-opacity:1;stroke:none;font-family:Montserrat;text-align:start;text-anchor:start;"
     transform="matrix(1.000000,-0.000000,0.000000,1.000000,159.656031,81.916933)"
     x="0.000000"
     y="0.000000"
     id="text830"><tspan
       sodipodi:role="line"
       x="0.000000"
       y="0.000000"
       id="tspan828"><tspan
         dx="0.000000"
         dy="0.000000"
         style="fill:#000000;font-size:92.000000px;font-style:normal;font-variant:normal;font-weight:400;font-stretch:Normal;font-family:Montserrat;"
         id="tspan826">ÉTICA DOCENTE</tspan></tspan></text>
  <path
     style="fill:#ffffff;fill-rule:evenodd;fill-opacity:1;stroke:none;"
     d="  M 533.37149,215.22826   C 526.10612,215.22826 526.10612,215.22826 526.10612,215.22826   C 524.80635,215.22826 523.53991,214.39507 523.10665,212.66205   C 521.84021,205.39668 521.84021,205.39668 521.84021,205.39668   C 521.84021,204.96342 521.84021,204.96342 521.40695,204.96342   C 520.10719,204.53017 518.40749,203.66366 517.10772,203.2304   C 516.70779,202.79714 516.70779,202.79714 516.27454,203.2304   C 510.27561,207.52963 510.27561,207.52963 510.27561,207.52963   C 509.00917,208.39614 507.27614,208.39614 506.44296,207.09638   C 501.31054,201.96396 501.31054,201.96396 501.31054,201.96396   C 500.01077,201.09745 500.01077,198.96449 500.87728,197.66473   C 505.14319,192.09905 505.14319,192.09905 505.14319,192.09905   C 505.14319,191.6658 505.14319,191.23254 505.14319,190.79928   C 504.27668,189.53284 503.87675,188.23308 503.44349,186.93331   C 503.44349,186.53338 503.01024,186.10012 503.01024,186.10012   C 495.74487,185.23361 495.74487,185.23361 495.74487,185.23361   C 494.01184,184.80036 492.7454,183.53391 492.7454,181.80089   C 492.7454,174.53552 492.7454,174.53552 492.7454,174.53552   C 492.7454,173.23575 494.01184,171.93598 495.74487,171.50273   C 503.01024,170.23629 503.01024,170.23629 503.01024,170.23629   C 503.01024,170.23629 503.44349,170.23629 503.44349,169.80303   C 503.87675,168.50326 504.27668,166.80357 505.14319,165.5038   C 505.14319,165.10387 505.14319,165.10387 505.14319,164.67061   C 500.87728,158.67168 500.87728,158.67168 500.87728,158.67168   C 500.01077,157.37192 500.01077,155.67222 501.31054,154.80571   C 506.44296,149.67329 506.44296,149.67329 506.44296,149.67329   C 507.27614,148.37352 509.00917,148.37352 510.27561,149.24003   C 516.27454,153.50594 516.27454,153.50594 516.27454,153.50594   C 516.70779,153.50594 516.70779,153.50594 517.10772,153.50594   C 518.40749,152.67276 520.10719,152.2395 521.40695,151.80624   C 521.84021,151.80624 521.84021,151.37299 521.84021,151.37299   C 523.10665,144.07429 523.10665,144.07429 523.10665,144.07429   C 523.53991,142.37459 524.80635,141.07483 526.10612,141.07483   C 533.37149,141.07483 533.37149,141.07483 533.37149,141.07483   C 535.07118,141.07483 536.37095,142.37459 536.80421,144.07429   C 537.63739,151.37299 537.63739,151.37299 537.63739,151.37299   C 537.63739,151.37299 538.07065,151.80624 538.5039,151.80624   C 539.80367,152.2395 541.07011,152.67276 542.36988,153.50594   C 542.76981,153.50594 543.20306,153.50594 543.20306,153.50594   C 549.20199,149.24003 549.20199,149.24003 549.20199,149.24003   C 550.46843,148.37352 552.60139,148.37352 553.4679,149.67329   C 558.60032,154.80571 558.60032,154.80571 558.60032,154.80571   C 559.90009,155.67222 559.90009,157.37192 559.03357,158.67168   C 554.76767,164.67061 554.76767,164.67061 554.76767,164.67061   C 554.33441,165.10387 554.33441,165.5038 554.76767,165.5038   C 555.1676,166.80357 556.03411,168.50326 556.46736,169.80303   C 556.46736,170.23629 556.46736,170.23629 556.90062,170.23629   C 564.16599,171.50273 564.16599,171.50273 564.16599,171.50273   C 564.16599,171.50273 564.16599,171.50273 564.16599,171.50273   C 565.86569,171.93598 566.7322,173.23575 566.7322,174.53552   C 566.7322,181.80089 566.7322,181.80089 566.7322,181.80089   C 566.7322,183.53391 565.86569,184.80036 564.16599,185.23361   C 556.90062,186.10012 556.90062,186.10012 556.90062,186.10012   C 556.46736,186.10012 556.46736,186.53338 556.46736,186.93331   C 556.03411,188.23308 555.1676,189.53284 554.76767,190.79928   C 554.33441,191.23254 554.33441,191.6658 554.76767,192.09905   C 559.03357,197.66473 559.03357,197.66473 559.03357,197.66473   C 559.90009,198.96449 559.90009,201.09745 558.60032,201.96396   C 553.4679,207.09638 553.4679,207.09638 553.4679,207.09638   C 552.60139,208.39614 550.46843,208.39614 549.20199,207.52963   C 543.20306,203.2304 543.20306,203.2304 543.20306,203.2304   C 543.20306,202.79714 542.76981,202.79714 542.36988,203.2304   C 541.07011,203.66366 539.80367,204.53017 538.5039,204.96342   C 538.07065,204.96342 537.63739,204.96342 537.63739,205.39668   C 536.80421,212.66205 536.80421,212.66205 536.80421,212.66205   C 536.37095,214.39507 535.07118,215.22826 533.37149,215.22826   z  M 526.53937,212.22879   C 533.37149,212.22879 533.37149,212.22879 533.37149,212.22879   C 534.238,204.96342 534.238,204.96342 534.238,204.96342   C 534.67125,203.2304 535.93769,201.96396 537.23746,201.5307   C 538.5039,201.09745 539.80367,200.66419 541.07011,200.23094   C 542.36988,199.36442 544.06958,199.36442 545.33602,200.23094   C 551.33495,204.53017 551.33495,204.53017 551.33495,204.53017   C 556.03411,199.79768 556.03411,199.79768 556.03411,199.79768   C 551.7682,193.79875 551.7682,193.79875 551.7682,193.79875   C 550.90169,192.53231 550.90169,190.79928 551.7682,189.53284   C 552.20146,188.23308 552.60139,186.93331 553.03464,185.66687   C 553.4679,184.3671 554.76767,183.10066 556.46736,183.10066   C 563.73273,181.80089 563.73273,181.80089 563.73273,181.80089   C 563.73273,174.93545 563.73273,174.93545 563.73273,174.93545   C 556.46736,173.66901 556.46736,173.66901 556.46736,173.66901   C 554.76767,173.66901 553.4679,172.36924 553.03464,170.66954   C 552.60139,169.36978 552.20146,168.50326 551.7682,167.23682   C 550.90169,165.5038 550.90169,163.8041 551.7682,162.93759   C 556.03411,156.93866 556.03411,156.93866 556.03411,156.93866   C 551.33495,151.80624 551.33495,151.80624 551.33495,151.80624   C 545.33602,156.07215 545.33602,156.07215 545.33602,156.07215   C 544.06958,157.37192 542.36988,157.37192 541.07011,156.5054   C 539.80367,156.07215 538.5039,155.23896 537.23746,155.23896   C 535.93769,154.37245 534.67125,153.07268 534.238,151.80624   C 533.37149,144.50755 533.37149,144.50755 533.37149,144.50755   C 526.53937,144.50755 526.53937,144.50755 526.53937,144.50755   C 525.2396,151.80624 525.2396,151.80624 525.2396,151.80624   C 525.2396,153.07268 523.97316,154.37245 522.24014,155.23896   C 520.9737,155.23896 520.10719,156.07215 518.84075,156.5054   C 517.10772,157.37192 515.40802,157.37192 514.14158,156.07215   C 508.57591,151.80624 508.57591,151.80624 508.57591,151.80624   C 503.44349,156.93866 503.44349,156.93866 503.44349,156.93866   C 507.7094,162.93759 507.7094,162.93759 507.7094,162.93759   C 509.00917,163.8041 509.00917,165.5038 508.14265,167.23682   C 507.7094,168.50326 506.84289,169.36978 506.84289,170.66954   C 506.0097,172.36924 504.70993,173.66901 503.44349,173.66901   C 496.17812,174.93545 496.17812,174.93545 496.17812,174.93545   C 496.17812,181.80089 496.17812,181.80089 496.17812,181.80089   C 503.44349,183.10066 503.44349,183.10066 503.44349,183.10066   C 504.70993,183.10066 506.0097,184.3671 506.84289,185.66687   C 506.84289,186.93331 507.7094,188.23308 508.14265,189.53284   C 509.00917,190.79928 509.00917,192.53231 507.7094,193.79875   C 503.44349,199.79768 503.44349,199.79768 503.44349,199.79768   C 508.57591,204.53017 508.57591,204.53017 508.57591,204.53017   C 514.14158,200.23094 514.14158,200.23094 514.14158,200.23094   C 515.40802,199.36442 517.10772,199.36442 518.84075,200.23094   C 520.10719,200.66419 520.9737,201.09745 522.24014,201.5307   C 523.97316,201.96396 525.2396,203.2304 525.2396,204.96342   L 526.53937,212.22879   z  M 503.44349,199.79768   C 503.44349,199.79768 503.44349,199.79768 503.44349,199.79768   z  M 556.03411,199.79768   C 556.03411,199.79768 556.03411,199.79768 556.03411,199.79768   z  M 563.73273,181.80089   C 563.73273,181.80089 563.73273,181.80089 563.73273,181.80089   z  M 496.17812,181.80089   C 496.17812,181.80089 496.17812,181.80089 496.17812,181.80089   z  M 563.73273,181.80089   C 563.73273,181.80089 563.73273,181.80089 563.73273,181.80089   z  M 496.17812,181.80089   C 496.17812,181.80089 496.17812,181.80089 496.17812,181.80089   C 496.17812,181.80089 496.17812,181.80089 496.17812,181.80089   z  M 551.33495,151.80624   C 551.33495,151.80624 551.33495,151.80624 551.33495,151.80624   C 551.33495,151.80624 551.33495,151.80624 551.33495,151.80624   z  M 550.90169,151.80624   C 551.33495,151.80624 551.33495,151.80624 551.33495,151.80624   L 550.90169,151.80624   z  M 529.93877,192.96557   C 526.10612,192.96557 522.24014,191.6658 519.274,188.66633   C 515.84128,185.23361 514.54151,180.10119 515.40802,174.93545   C 516.70779,169.36978 520.9737,165.10387 526.53937,163.8041   C 531.67179,162.93759 536.80421,164.23736 540.2036,167.67008   C 544.06958,171.50273 545.33602,176.66847 544.06958,181.80089   C 543.20306,186.93331 538.93716,191.6658 533.37149,192.53231   C 532.10505,192.96557 530.80528,192.96557 529.93877,192.96557   z  M 529.93877,166.80357   C 529.10558,166.80357 528.23907,167.23682 527.37256,167.23682   C 523.10665,168.10334 519.67393,171.50273 518.84075,175.80196   C 517.97423,179.66794 519.274,183.53391 521.84021,186.53338   C 524.80635,189.09959 528.67232,190.36603 532.50497,189.53284   C 532.50497,189.53284 532.50497,189.53284 532.50497,189.53284   C 536.80421,188.66633 540.2036,185.23361 541.07011,180.93438   C 541.93662,177.10173 540.63686,173.23575 538.07065,170.23629   C 535.93769,168.10334 532.93823,166.80357 529.93877,166.80357   z "
     id="path832" />
  <path
     style="fill:#ffffff;fill-rule:evenodd;fill-opacity:1;stroke:none;"
     d="  M 894.9403,205.03008   C 888.50811,205.03008 883.37569,204.59682 877.81002,203.29705   C 876.11032,202.89713 874.41063,202.46387 873.11086,201.59736   C 869.67814,200.33092 868.84495,198.16464 868.4117,196.46494   C 868.4117,194.76524 868.84495,192.59896 870.54465,190.89927   C 873.11086,188.76631 876.11032,186.63336 880.37623,184.46708   C 881.676,184.06715 882.94244,183.6339 884.24221,183.20064   C 885.50865,182.76738 885.50865,182.76738 885.50865,182.76738   C 886.37516,182.33413 886.80841,181.50094 887.24167,180.63443   C 887.24167,180.20118 887.24167,179.33466 886.37516,178.93474   C 881.676,174.20225 879.94297,168.63657 879.94297,161.80446   C 880.37623,155.37227 883.80895,151.10637 891.07432,149.37334   C 892.37409,148.97342 893.64053,148.54016 894.9403,148.54016   C 896.20674,148.54016 897.93976,148.97342 899.2062,149.37334   C 906.07164,151.10637 909.90429,155.37227 909.90429,161.80446   C 910.33755,168.63657 908.2046,174.20225 903.50544,178.93474   C 903.07218,179.33466 902.63892,180.20118 903.07218,180.63443   C 903.07218,181.50094 903.90536,182.33413 904.77188,182.76738   C 905.63839,183.20064 905.63839,183.20064 905.63839,183.20064   C 906.90483,183.6339 908.2046,184.06715 909.47104,184.46708   C 913.77027,186.63336 916.76973,188.76631 919.33594,190.89927   C 920.60238,192.59896 921.4689,194.76524 921.03564,196.8982   C 920.60238,199.03115 919.33594,200.73085 917.16966,201.59736   C 917.16966,201.59736 917.16966,201.59736 917.16966,201.59736   C 915.46997,202.46387 913.77027,202.89713 912.03725,203.29705   C 906.90483,204.59682 901.33915,205.03008 894.9403,205.03008   z  M 894.9403,151.97288   C 894.07378,151.97288 892.80734,151.97288 891.94083,152.37281   C 885.9419,153.67258 883.37569,156.67204 882.94244,161.80446   C 882.94244,167.80339 884.67546,172.50255 888.50811,176.76846   C 889.80788,178.06822 890.64106,179.76792 890.24114,181.50094   C 889.80788,183.20064 888.50811,184.90034 886.37516,185.33359   C 885.50865,185.76685 885.50865,185.76685 885.50865,185.76685   C 884.24221,186.20011 882.94244,186.63336 881.676,187.46655   C 877.81002,189.19957 874.81056,190.89927 872.6776,193.46548   C 871.84442,194.33199 871.41116,195.16517 871.84442,196.03168   C 871.84442,197.33145 872.6776,198.16464 874.41063,199.03115   C 875.67707,199.46441 876.97684,199.89766 878.67653,200.33092   C 883.80895,201.59736 888.94137,201.59736 894.9403,202.03061   C 901.33915,201.59736 906.47157,201.59736 911.60399,200.33092   C 912.90376,199.89766 914.60345,199.46441 915.90322,199.03115   C 917.16966,198.16464 918.03618,197.33145 918.03618,196.03168   C 918.46943,195.16517 918.03618,193.89873 917.16966,193.46548   C 915.03671,190.89927 912.4705,189.19957 908.2046,187.46655   C 906.90483,186.63336 905.63839,186.20011 904.77188,185.76685   C 903.50544,185.33359 903.50544,185.33359 903.50544,185.33359   C 901.77241,184.90034 900.50597,183.20064 900.07271,181.50094   C 899.63946,179.76792 900.07271,178.06822 901.33915,176.76846   C 905.20513,172.93581 907.33808,167.80339 906.90483,161.80446   C 906.90483,156.67204 903.90536,153.67258 898.37302,152.37281   C 897.07325,151.97288 896.20674,151.97288 894.9403,151.97288   z  M 916.33648,200.33092   C 916.33648,200.33092 916.33648,200.33092 916.33648,200.33092   z  M 930.43396,205.03008   C 929.60078,205.03008 929.60078,205.03008 929.60078,205.03008   C 926.60131,205.03008 925.7348,205.03008 922.30208,204.59682   C 921.4689,204.59682 921.03564,203.73031 921.03564,202.89713   C 921.03564,202.03061 921.90215,201.1641 922.73534,201.59736   C 925.7348,201.59736 926.60131,201.59736 929.60078,202.03061   C 930.43396,202.03061 930.43396,202.03061 930.43396,202.03061   C 934.7332,201.59736 938.56585,201.59736 941.99857,200.73085   C 942.86508,200.73085 944.13152,200.33092 944.99803,199.89766   C 945.43129,199.46441 946.26447,199.03115 946.26447,198.16464   C 946.26447,197.76471 945.86454,196.8982 945.86454,196.8982   C 944.13152,195.16517 942.43182,193.89873 939.43236,192.59896   C 938.56585,192.19904 937.73266,191.76578 936.86615,191.76578   C 936.43289,191.33252 936.43289,191.33252 936.43289,191.33252   C 934.7332,190.89927 933.86668,189.63283 933.43343,188.33306   C 933.43343,187.03329 933.86668,185.33359 934.7332,184.46708   C 937.2994,181.90087 938.56585,178.50148 938.56585,174.6355   C 938.13259,171.20278 936.43289,169.06983 932.60024,168.20332   C 932.16699,168.20332 931.30047,167.80339 930.43396,167.80339   C 930.03403,167.80339 929.16752,168.20332 928.30101,168.20332   C 924.86829,169.06983 922.73534,171.20278 922.73534,174.6355   C 922.73534,178.50148 924.0351,181.90087 926.60131,184.46708   C 927.4345,185.76685 928.30101,187.03329 927.86775,188.33306   C 927.4345,189.63283 926.60131,190.46601 925.30155,190.89927   C 924.86829,191.33252 924.86829,191.33252 924.86829,191.33252   C 924.46836,191.33252 923.60185,190.89927 923.16859,190.46601   C 922.73534,189.63283 923.16859,188.76631 924.0351,188.33306   C 924.0351,188.33306 924.0351,188.33306 924.0351,188.33306   C 924.46836,187.8998 924.86829,187.8998 924.86829,187.8998   C 924.86829,187.46655 924.86829,187.03329 924.46836,186.63336   C 921.03564,183.20064 919.73587,179.33466 919.73587,174.6355   C 919.73587,171.20278 921.4689,166.93688 927.86775,165.23718   C 928.73427,165.23718 929.60078,164.80392 930.43396,164.80392   C 931.73373,164.80392 932.60024,165.23718 933.43343,165.23718   C 939.86561,166.93688 941.56531,171.20278 941.56531,174.6355   C 941.56531,179.33466 940.29887,183.6339 936.86615,186.63336   C 936.86615,187.03329 936.43289,187.03329 936.43289,187.46655   C 936.43289,187.8998 936.86615,188.33306 937.73266,188.33306   C 938.13259,188.76631 938.13259,188.76631 938.13259,188.76631   C 938.9991,189.19957 939.86561,189.63283 940.6988,190.03276   C 944.13152,191.33252 946.26447,192.59896 947.9975,194.33199   C 948.83068,195.59843 949.26394,197.33145 949.26394,199.03115   C 948.83068,200.33092 947.9975,202.03061 946.26447,202.46387   C 944.99803,203.29705 943.69826,203.73031 942.43182,203.73031   C 938.9991,204.59682 935.16645,205.03008 930.43396,205.03008   z  M 859.4133,205.03008   C 854.28089,205.03008 850.01498,204.59682 846.149,203.73031   C 844.44931,203.29705 843.14954,202.89713 842.31635,202.46387   C 840.1834,201.59736 838.88363,199.89766 838.45038,198.16464   C 838.45038,196.8982 838.88363,195.16517 840.1834,193.89873   C 842.31635,191.76578 844.44931,190.03276 847.88203,188.76631   C 848.71521,188.33306 850.01498,187.8998 850.88149,187.46655   C 851.71468,187.03329 851.71468,187.03329 851.71468,187.03329   C 852.14793,186.63336 852.58119,186.20011 853.01445,185.76685   C 853.01445,185.33359 852.58119,184.90034 852.14793,184.46708   C 848.71521,181.06769 847.01552,176.76846 847.44877,171.20278   C 847.44877,167.80339 849.14847,163.0709 856.01391,161.3712   C 857.28035,160.93795 858.14686,160.93795 859.4133,160.93795   C 860.27982,160.93795 861.54626,160.93795 862.41277,161.3712   C 869.27821,163.0709 870.97791,167.80339 870.97791,171.20278   C 871.41116,176.76846 869.67814,181.06769 866.27874,184.90034   C 865.84549,184.90034 865.41223,185.33359 865.84549,185.76685   C 865.84549,186.20011 866.27874,186.63336 866.712,187.03329   C 867.54519,187.46655 867.54519,187.46655 867.54519,187.46655   C 868.4117,187.46655 868.84495,188.76631 868.4117,189.19957   C 867.97844,190.03276 867.11193,190.46601 866.712,190.03276   C 865.84549,190.03276 865.84549,190.03276 865.84549,190.03276   C 864.11246,189.19957 862.84602,187.8998 862.84602,186.63336   C 862.41277,184.90034 862.84602,183.6339 864.11246,182.33413   C 867.11193,179.76792 868.4117,175.93527 867.97844,171.63604   C 867.97844,167.80339 865.84549,165.23718 861.54626,164.37067   C 860.71307,163.93741 859.84656,163.93741 859.4133,163.93741   C 858.58012,163.93741 857.71361,163.93741 856.84709,164.37067   C 852.58119,165.23718 850.44824,167.80339 850.44824,171.63604   C 850.44824,175.93527 851.71468,179.76792 854.71414,182.33413   C 855.58065,183.6339 856.01391,185.33359 856.01391,186.63336   C 855.58065,187.8998 854.28089,189.19957 852.58119,190.03276   C 852.14793,190.03276 852.14793,190.03276 852.14793,190.03276   C 850.88149,190.46601 850.01498,190.89927 849.14847,191.33252   C 846.149,192.59896 844.01605,194.33199 842.31635,196.03168   C 841.8831,196.46494 841.44984,197.33145 841.44984,197.76471   C 841.8831,198.59789 842.31635,199.03115 843.58279,199.46441   C 844.44931,199.89766 845.31582,200.33092 846.58226,200.73085   C 850.44824,201.59736 854.28089,201.59736 859.4133,202.03061   C 861.97951,202.03061 864.54572,201.59736 866.712,201.59736   C 867.54519,201.59736 868.4117,202.03061 868.4117,202.89713   C 868.4117,203.73031 867.97844,204.59682 867.11193,204.59682   C 864.54572,204.59682 862.41277,205.03008 859.4133,205.03008   z "
     id="path834" />
  <path
     style="fill:#ffffff;fill-rule:evenodd;fill-opacity:1;stroke:none;"
     d="  M 164.20403,223.32681   C 152.65609,223.32681 152.65609,223.32681 152.65609,223.32681   C 151.80624,223.32681 150.95639,222.47697 150.95639,221.61045   C 150.95639,220.76061 151.80624,219.91076 152.65609,219.91076   C 164.20403,219.91076 164.20403,219.91076 164.20403,219.91076   C 165.07054,219.91076 165.92039,220.76061 165.92039,221.61045   C 165.92039,222.47697 165.07054,223.32681 164.20403,223.32681   z  M 167.63675,217.76114   C 149.24003,217.76114 149.24003,217.76114 149.24003,217.76114   C 148.39019,217.76114 147.52367,216.91129 147.52367,216.04478   C 147.52367,215.19493 148.39019,214.34508 149.24003,214.34508   C 167.63675,214.34508 167.63675,214.34508 167.63675,214.34508   C 168.4866,214.34508 169.33645,215.19493 169.33645,216.04478   C 169.33645,216.91129 168.4866,217.76114 167.63675,217.76114   z  M 158.22177,211.77887   C 154.80571,211.77887 151.37299,211.77887 151.37299,211.77887   C 151.37299,211.77887 151.37299,211.77887 151.37299,211.77887   C 147.95693,211.77887 146.24057,210.49577 145.80731,207.49631   C 145.39072,206.64646 145.39072,205.36335 145.39072,204.08025   C 145.39072,202.36389 145.39072,200.64753 144.52421,199.36442   C 141.958,195.08185 140.6749,192.09905 138.10869,187.38323   C 135.54248,182.68407 133.40953,175.83529 134.69263,169.41977   C 136.82558,161.28788 145.39072,153.156 158.22177,153.156   C 170.61955,153.156 179.61795,161.28788 181.31764,169.41977   C 183.034,175.83529 180.4678,182.68407 178.33484,187.38323   C 175.76863,192.09905 174.05227,195.08185 171.90266,199.36442   C 171.05281,200.64753 171.05281,202.36389 171.05281,204.08025   C 171.05281,205.36335 171.05281,206.64646 170.61955,207.49631   C 169.7697,210.49577 168.4866,211.77887 165.07054,211.77887   C 165.07054,211.77887 161.63782,211.77887 158.22177,211.77887   z  M 151.37299,208.34615   C 151.80624,208.34615 164.63729,208.34615 165.07054,208.34615   C 167.2035,208.34615 167.2035,208.34615 167.63675,207.06305   C 167.63675,206.2132 167.63675,204.9301 167.63675,204.08025   C 167.63675,201.93063 168.05334,199.79768 168.91986,198.08132   C 171.48606,193.38216 173.20243,190.38269 175.33538,185.66687   C 177.05174,182.68407 180.03454,176.25188 178.33484,170.26962   C 176.61848,163.42084 168.91986,156.15547 158.22177,156.15547   C 147.52367,156.15547 139.82505,163.42084 138.10869,170.26962   C 136.40899,176.25188 138.9752,182.68407 141.10815,185.66687   C 143.24111,190.38269 144.95747,193.38216 147.52367,198.08132   C 148.39019,199.79768 148.39019,201.93063 148.39019,204.08025   C 148.80678,204.9301 148.80678,206.2132 148.80678,207.06305   C 149.24003,208.34615 149.24003,208.34615 151.37299,208.34615   C 151.37299,208.34615 151.37299,208.34615 151.37299,208.34615   z  M 130.41006,177.11839   C 123.99454,177.11839 123.99454,177.11839 123.99454,177.11839   C 123.14469,177.11839 122.27818,176.25188 122.27818,175.40203   C 122.27818,174.55218 123.14469,174.11893 123.99454,174.11893   C 130.41006,174.11893 130.41006,174.11893 130.41006,174.11893   C 131.27657,174.11893 131.69317,174.55218 131.69317,175.40203   C 131.69317,176.25188 131.27657,177.11839 130.41006,177.11839   z  M 193.73209,175.83529   C 186.03347,175.83529 186.03347,175.83529 186.03347,175.83529   C 185.16696,175.83529 184.31711,175.40203 184.31711,174.55218   C 184.31711,173.26908 185.16696,172.83582 186.03347,172.83582   C 193.73209,172.83582 193.73209,172.83582 193.73209,172.83582   C 194.58194,172.83582 195.43179,173.26908 195.43179,174.55218   C 195.43179,175.40203 194.58194,175.83529 193.73209,175.83529   z  M 144.10762,174.55218   C 143.67436,174.55218 143.67436,174.55218 143.67436,174.55218   C 142.82451,174.55218 141.958,173.68567 142.39126,172.83582   C 143.67436,166.83689 150.08988,160.85463 159.07161,160.85463   C 159.07161,160.85463 159.07161,160.85463 159.07161,160.85463   C 159.93813,160.85463 160.78797,161.70448 160.78797,162.57099   C 160.78797,163.42084 159.93813,164.27069 159.07161,164.27069   C 151.80624,164.27069 146.67383,168.98651 145.39072,173.26908   C 145.39072,174.11893 144.52421,174.55218 144.10762,174.55218   z  M 178.33484,157.43857   C 177.90159,157.43857 177.90159,157.00532 177.46833,156.57206   C 176.61848,156.15547 176.61848,155.28896 177.46833,154.43911   C 182.60075,149.30669 182.60075,149.30669 182.60075,149.30669   C 183.46726,148.44018 184.31711,148.44018 185.16696,149.30669   C 185.60021,149.72328 185.60021,150.58979 185.16696,151.43964   C 179.61795,156.57206 179.61795,156.57206 179.61795,156.57206   C 179.18469,157.00532 178.75143,157.43857 178.33484,157.43857   z  M 138.10869,157.43857   C 137.6921,157.43857 137.25884,157.00532 137.25884,156.57206   C 131.69317,151.43964 131.69317,151.43964 131.69317,151.43964   C 131.27657,150.58979 131.27657,149.72328 131.69317,149.30669   C 132.55968,148.44018 133.40953,148.44018 133.84278,149.30669   C 139.39179,154.43911 139.39179,154.43911 139.39179,154.43911   C 139.82505,155.28896 139.82505,156.15547 139.39179,156.57206   C 138.9752,157.00532 138.54194,157.43857 138.10869,157.43857   z  M 158.22177,150.15654   C 157.37192,150.15654 156.5054,149.30669 156.5054,148.44018   C 156.5054,139.45845 156.5054,139.45845 156.5054,139.45845   C 156.5054,138.6086 157.37192,138.17534 158.22177,138.17534   C 159.07161,138.17534 159.93813,138.6086 159.93813,139.45845   C 159.93813,148.44018 159.93813,148.44018 159.93813,148.44018   C 159.93813,149.30669 159.07161,150.15654 158.22177,150.15654   z "
     id="path836" />
  <text
     xml:space="preserve"
     style="font-size:28.000000px;font-style:normal;font-variant:normal;font-weight:700;font-stretch:Normal;line-height:125.000000%;letter-spacing:0px;word-spacing:0px;fill:#000000;fill-opacity:1;stroke:none;font-family:Arial;text-align:start;text-anchor:start;"
     transform="matrix(1.000000,-0.000000,0.000000,1.000000,797.445651,282.777891)"
     x="0.000000"
     y="0.000000"
     id="text842"><tspan
       sodipodi:role="line"
       x="0.000000"
       y="0.000000"
       id="tspan840"><tspan
         dx="0.000000"
         dy="0.000000"
         style="fill:#000000;font-size:28.000000px;font-style:normal;font-variant:normal;font-weight:700;font-stretch:Normal;font-family:Arial;"
         id="tspan838">docente</tspan></tspan></text>
  <text
     xml:space="preserve"
     style="font-size:28.000000px;font-style:normal;font-variant:normal;font-weight:700;font-stretch:Normal;line-height:125.000000%;letter-spacing:0px;word-spacing:0px;fill:#000000;fill-opacity:1;stroke:none;font-family:Arial;text-align:start;text-anchor:start;"
     transform="matrix(1.000000,-0.000000,0.000000,1.000000,923.023241,282.777891)"
     x="0.000000"
     y="0.000000"
     id="text848"><tspan
       sodipodi:role="line"
       x="0.000000"
       y="0.000000"
       id="tspan846"><tspan
         dx="0.000000"
         dy="0.000000"
         style="fill:#000000;font-size:28.000000px;font-style:normal;font-variant:normal;font-weight:700;font-stretch:Normal;font-family:Arial;"
         id="tspan844">como</tspan></tspan></text>
  <text
     xml:space="preserve"
     style="font-size:28.000000px;font-style:normal;font-variant:normal;font-weight:700;font-stretch:Normal;line-height:125.000000%;letter-spacing:0px;word-spacing:0px;fill:#000000;fill-opacity:1;stroke:none;font-family:Arial;text-align:start;text-anchor:start;"
     transform="matrix(1.000000,-0.000000,0.000000,1.000000,1004.608682,282.777891)"
     x="0.000000"
     y="0.000000"
     id="text854"><tspan
       sodipodi:role="line"
       x="0.000000"
       y="0.000000"
       id="tspan852"><tspan
         dx="0.000000"
         dy="0.000000"
         style="fill:#000000;font-size:28.000000px;font-style:normal;font-variant:normal;font-weight:700;font-stretch:Normal;font-family:Arial;"
         id="tspan850">…</tspan></tspan></text>
  <text
     xml:space="preserve"
     style="font-size:28.000000px;font-style:normal;font-variant:normal;font-weight:700;font-stretch:Normal;line-height:125.000000%;letter-spacing:0px;word-spacing:0px;fill:#000000;fill-opacity:1;stroke:none;font-family:Arial;text-align:start;text-anchor:start;"
     transform="matrix(1.000000,-0.000000,0.000000,1.000000,739.589308,316.371896)"
     x="0.000000"
     y="0.000000"
     id="text860"><tspan
       sodipodi:role="line"
       x="0.000000"
       y="0.000000"
       id="tspan858"><tspan
         dx="0.000000"
         dy="0.000000"
         style="fill:#000000;font-size:28.000000px;font-style:normal;font-variant:normal;font-weight:700;font-stretch:Normal;font-family:Arial;"
         id="tspan856">PARTE DE COMUNIDAD</tspan></tspan></text>
  <text
     xml:space="preserve"
     style="font-size:28.000000px;font-style:normal;font-variant:normal;font-weight:700;font-stretch:Normal;line-height:125.000000%;letter-spacing:0px;word-spacing:0px;fill:#000000;fill-opacity:1;stroke:none;font-family:Arial;text-align:start;text-anchor:start;"
     transform="matrix(1.000000,-0.000000,0.000000,1.000000,402.453214,286.809821)"
     x="0.000000"
     y="0.000000"
     id="text866"><tspan
       sodipodi:role="line"
       x="0.000000"
       y="0.000000"
       id="tspan864"><tspan
         dx="0.000000"
         dy="0.000000"
         style="fill:#000000;font-size:28.000000px;font-style:normal;font-variant:normal;font-weight:700;font-stretch:Normal;font-family:Arial;"
         id="tspan862">docente</tspan></tspan></text>
  <text
     xml:space="preserve"
     style="font-size:28.000000px;font-style:normal;font-variant:normal;font-weight:700;font-stretch:Normal;line-height:125.000000%;letter-spacing:0px;word-spacing:0px;fill:#000000;fill-opacity:1;stroke:none;font-family:Arial;text-align:start;text-anchor:start;"
     transform="matrix(1.000000,-0.000000,0.000000,1.000000,528.030805,286.809821)"
     x="0.000000"
     y="0.000000"
     id="text872"><tspan
       sodipodi:role="line"
       x="0.000000"
       y="0.000000"
       id="tspan870"><tspan
         dx="0.000000"
         dy="0.000000"
         style="fill:#000000;font-size:28.000000px;font-style:normal;font-variant:normal;font-weight:700;font-stretch:Normal;font-family:Arial;"
         id="tspan868">como</tspan></tspan></text>
  <text
     xml:space="preserve"
     style="font-size:28.000000px;font-style:normal;font-variant:normal;font-weight:700;font-stretch:Normal;line-height:125.000000%;letter-spacing:0px;word-spacing:0px;fill:#000000;fill-opacity:1;stroke:none;font-family:Arial;text-align:start;text-anchor:start;"
     transform="matrix(1.000000,-0.000000,0.000000,1.000000,609.616278,286.809821)"
     x="0.000000"
     y="0.000000"
     id="text878"><tspan
       sodipodi:role="line"
       x="0.000000"
       y="0.000000"
       id="tspan876"><tspan
         dx="0.000000"
         dy="0.000000"
         style="fill:#000000;font-size:28.000000px;font-style:normal;font-variant:normal;font-weight:700;font-stretch:Normal;font-family:Arial;"
         id="tspan874">…</tspan></tspan></text>
  <text
     xml:space="preserve"
     style="font-size:28.000000px;font-style:normal;font-variant:normal;font-weight:700;font-stretch:Normal;line-height:125.000000%;letter-spacing:0px;word-spacing:0px;fill:#000000;fill-opacity:1;stroke:none;font-family:Arial;text-align:start;text-anchor:start;"
     transform="matrix(1.000000,-0.000000,0.000000,1.000000,353.128683,320.403826)"
     x="0.000000"
     y="0.000000"
     id="text884"><tspan
       sodipodi:role="line"
       x="0.000000"
       y="0.000000"
       id="tspan882"><tspan
         dx="0.000000"
         dy="0.000000"
         style="fill:#000000;font-size:28.000000px;font-style:normal;font-variant:normal;font-weight:700;font-stretch:Normal;font-family:Arial;"
         id="tspan880">MIEMBRO DE CENTRO</tspan></tspan></text>
  <text
     xml:space="preserve"
     style="font-size:28.000000px;font-style:normal;font-variant:normal;font-weight:700;font-stretch:Normal;line-height:125.000000%;letter-spacing:0px;word-spacing:0px;fill:#000000;fill-opacity:1;stroke:none;font-family:Arial;text-align:start;text-anchor:start;"
     transform="matrix(1.000000,-0.000000,0.000000,1.000000,41.131507,286.809821)"
     x="0.000000"
     y="0.000000"
     id="text890"><tspan
       sodipodi:role="line"
       x="0.000000"
       y="0.000000"
       id="tspan888"><tspan
         dx="0.000000"
         dy="0.000000"
         style="fill:#000000;font-size:28.000000px;font-style:normal;font-variant:normal;font-weight:700;font-stretch:Normal;font-family:Arial;"
         id="tspan886">docente</tspan></tspan></text>
  <text
     xml:space="preserve"
     style="font-size:28.000000px;font-style:normal;font-variant:normal;font-weight:700;font-stretch:Normal;line-height:125.000000%;letter-spacing:0px;word-spacing:0px;fill:#000000;fill-opacity:1;stroke:none;font-family:Arial;text-align:start;text-anchor:start;"
     transform="matrix(1.000000,-0.000000,0.000000,1.000000,166.709101,286.809821)"
     x="0.000000"
     y="0.000000"
     id="text896"><tspan
       sodipodi:role="line"
       x="0.000000"
       y="0.000000"
       id="tspan894"><tspan
         dx="0.000000"
         dy="0.000000"
         style="fill:#000000;font-size:28.000000px;font-style:normal;font-variant:normal;font-weight:700;font-stretch:Normal;font-family:Arial;"
         id="tspan892">como</tspan></tspan></text>
  <text
     xml:space="preserve"
     style="font-size:28.000000px;font-style:normal;font-variant:normal;font-weight:700;font-stretch:Normal;line-height:125.000000%;letter-spacing:0px;word-spacing:0px;fill:#000000;fill-opacity:1;stroke:none;font-family:Arial;text-align:start;text-anchor:start;"
     transform="matrix(1.000000,-0.000000,0.000000,1.000000,248.294542,286.809821)"
     x="0.000000"
     y="0.000000"
     id="text902"><tspan
       sodipodi:role="line"
       x="0.000000"
       y="0.000000"
       id="tspan900"><tspan
         dx="0.000000"
         dy="0.000000"
         style="fill:#000000;font-size:28.000000px;font-style:normal;font-variant:normal;font-weight:700;font-stretch:Normal;font-family:Arial;"
         id="tspan898">…</tspan></tspan></text>
  <text
     xml:space="preserve"
     style="font-size:28.000000px;font-style:normal;font-variant:normal;font-weight:700;font-stretch:Normal;line-height:125.000000%;letter-spacing:0px;word-spacing:0px;fill:#000000;fill-opacity:1;stroke:none;font-family:Arial;text-align:start;text-anchor:start;"
     transform="matrix(1.000000,-0.000000,0.000000,1.000000,52.062889,320.403826)"
     x="0.000000"
     y="0.000000"
     id="text908"><tspan
       sodipodi:role="line"
       x="0.000000"
       y="0.000000"
       id="tspan906"><tspan
         dx="0.000000"
         dy="0.000000"
         style="fill:#000000;font-size:28.000000px;font-style:normal;font-variant:normal;font-weight:700;font-stretch:Normal;font-family:Arial;"
         id="tspan904">ESPECIALISTA</tspan></tspan></text>
  <text
     xml:space="preserve"
     style="font-size:21.312500px;font-style:normal;font-variant:normal;font-weight:400;font-stretch:Normal;line-height:125.000000%;letter-spacing:0px;word-spacing:0px;fill:#000000;fill-opacity:1;stroke:none;font-family:Arial;text-align:start;text-anchor:start;"
     transform="matrix(1.000000,-0.000000,0.000000,1.000000,26.661909,363.802592)"
     x="0.000000"
     y="0.000000"
     id="text914"><tspan
       sodipodi:role="line"
       x="0.000000"
       y="0.000000"
       id="tspan912"><tspan
         dx="0.000000"
         dy="0.000000"
         style="fill:#000000;font-size:21.312500px;font-style:normal;font-variant:normal;font-weight:400;font-stretch:Normal;font-family:Arial;"
         id="tspan910">Elección </tspan></tspan></text>
  <text
     xml:space="preserve"
     style="font-size:21.312500px;font-style:normal;font-variant:normal;font-weight:400;font-stretch:Normal;line-height:125.000000%;letter-spacing:0px;word-spacing:0px;fill:#000000;fill-opacity:1;stroke:none;font-family:Arial;text-align:start;text-anchor:start;"
     transform="matrix(1.000000,-0.000000,0.000000,1.000000,112.246636,363.802592)"
     x="0.000000"
     y="0.000000"
     id="text920"><tspan
       sodipodi:role="line"
       x="0.000000"
       y="0.000000"
       id="tspan918"><tspan
         dx="0.000000"
         dy="0.000000"
         style="fill:#000000;font-size:21.312500px;font-style:normal;font-variant:normal;font-weight:400;font-stretch:Normal;font-family:Arial;"
         id="tspan916">contenidos </tspan></tspan></text>
  <text
     xml:space="preserve"
     style="font-size:21.312500px;font-style:normal;font-variant:normal;font-weight:400;font-stretch:Normal;line-height:125.000000%;letter-spacing:0px;word-spacing:0px;fill:#000000;fill-opacity:1;stroke:none;font-family:Arial;text-align:start;text-anchor:start;"
     transform="matrix(1.000000,-0.000000,0.000000,1.000000,223.160177,363.802592)"
     x="0.000000"
     y="0.000000"
     id="text926"><tspan
       sodipodi:role="line"
       x="0.000000"
       y="0.000000"
       id="tspan924"><tspan
         dx="0.000000"
         dy="0.000000"
         style="fill:#000000;font-size:21.312500px;font-style:normal;font-variant:normal;font-weight:400;font-stretch:Normal;font-family:Arial;"
         id="tspan922">curriculares</tspan></tspan></text>
  <text
     xml:space="preserve"
     style="font-size:21.312500px;font-style:normal;font-variant:normal;font-weight:400;font-stretch:Normal;line-height:125.000000%;letter-spacing:0px;word-spacing:0px;fill:#000000;fill-opacity:1;stroke:none;font-family:Arial;text-align:start;text-anchor:start;"
     transform="matrix(1.000000,-0.000000,0.000000,1.000000,26.661909,389.398024)"
     x="0.000000"
     y="0.000000"
     id="text932"><tspan
       sodipodi:role="line"
       x="0.000000"
       y="0.000000"
       id="tspan930"><tspan
         dx="0.000000"
         dy="0.000000"
         style="fill:#000000;font-size:21.312500px;font-style:normal;font-variant:normal;font-weight:400;font-stretch:Normal;font-family:Arial;"
         id="tspan928">Métodos didácticos</tspan></tspan></text>
  <text
     xml:space="preserve"
     style="font-size:21.312500px;font-style:normal;font-variant:normal;font-weight:400;font-stretch:Normal;line-height:125.000000%;letter-spacing:0px;word-spacing:0px;fill:#000000;fill-opacity:1;stroke:none;font-family:Arial;text-align:start;text-anchor:start;"
     transform="matrix(1.000000,-0.000000,0.000000,1.000000,26.661909,414.993457)"
     x="0.000000"
     y="0.000000"
     id="text938"><tspan
       sodipodi:role="line"
       x="0.000000"
       y="0.000000"
       id="tspan936"><tspan
         dx="0.000000"
         dy="0.000000"
         style="fill:#000000;font-size:21.312500px;font-style:normal;font-variant:normal;font-weight:400;font-stretch:Normal;font-family:Arial;"
         id="tspan934">Conexión </tspan></tspan></text>
  <text
     xml:space="preserve"
     style="font-size:21.312500px;font-style:normal;font-variant:normal;font-weight:400;font-stretch:Normal;line-height:125.000000%;letter-spacing:0px;word-spacing:0px;fill:#000000;fill-opacity:1;stroke:none;font-family:Arial;text-align:start;text-anchor:start;"
     transform="matrix(1.000000,-0.000000,0.000000,1.000000,120.778447,414.993457)"
     x="0.000000"
     y="0.000000"
     id="text944"><tspan
       sodipodi:role="line"
       x="0.000000"
       y="0.000000"
       id="tspan942"><tspan
         dx="0.000000"
         dy="0.000000"
         style="fill:#000000;font-size:21.312500px;font-style:normal;font-variant:normal;font-weight:400;font-stretch:Normal;font-family:Arial;"
         id="tspan940">otras </tspan></tspan></text>
  <text
     xml:space="preserve"
     style="font-size:21.312500px;font-style:normal;font-variant:normal;font-weight:400;font-stretch:Normal;line-height:125.000000%;letter-spacing:0px;word-spacing:0px;fill:#000000;fill-opacity:1;stroke:none;font-family:Arial;text-align:start;text-anchor:start;"
     transform="matrix(1.000000,-0.000000,0.000000,1.000000,175.168741,414.993457)"
     x="0.000000"
     y="0.000000"
     id="text950"><tspan
       sodipodi:role="line"
       x="0.000000"
       y="0.000000"
       id="tspan948"><tspan
         dx="0.000000"
         dy="0.000000"
         style="fill:#000000;font-size:21.312500px;font-style:normal;font-variant:normal;font-weight:400;font-stretch:Normal;font-family:Arial;"
         id="tspan946">áreas de </tspan></tspan></text>
  <text
     xml:space="preserve"
     style="font-size:21.312500px;font-style:normal;font-variant:normal;font-weight:400;font-stretch:Normal;line-height:125.000000%;letter-spacing:0px;word-spacing:0px;fill:#000000;fill-opacity:1;stroke:none;font-family:Arial;text-align:start;text-anchor:start;"
     transform="matrix(1.000000,-0.000000,0.000000,1.000000,26.661909,440.588889)"
     x="0.000000"
     y="0.000000"
     id="text956"><tspan
       sodipodi:role="line"
       x="0.000000"
       y="0.000000"
       id="tspan954"><tspan
         dx="0.000000"
         dy="0.000000"
         style="fill:#000000;font-size:21.312500px;font-style:normal;font-variant:normal;font-weight:400;font-stretch:Normal;font-family:Arial;"
         id="tspan952">conocimiento</tspan></tspan></text>
  <text
     xml:space="preserve"
     style="font-size:21.312500px;font-style:normal;font-variant:normal;font-weight:400;font-stretch:Normal;line-height:125.000000%;letter-spacing:0px;word-spacing:0px;fill:#000000;fill-opacity:1;stroke:none;font-family:Arial;text-align:start;text-anchor:start;"
     transform="matrix(1.000000,-0.000000,0.000000,1.000000,26.661909,466.184322)"
     x="0.000000"
     y="0.000000"
     id="text962"><tspan
       sodipodi:role="line"
       x="0.000000"
       y="0.000000"
       id="tspan960"><tspan
         dx="0.000000"
         dy="0.000000"
         style="fill:#000000;font-size:21.312500px;font-style:normal;font-variant:normal;font-weight:400;font-stretch:Normal;font-family:Arial;"
         id="tspan958">Autonomía profesional y libertad </tspan></tspan></text>
  <text
     xml:space="preserve"
     style="font-size:21.312500px;font-style:normal;font-variant:normal;font-weight:400;font-stretch:Normal;line-height:125.000000%;letter-spacing:0px;word-spacing:0px;fill:#000000;fill-opacity:1;stroke:none;font-family:Arial;text-align:start;text-anchor:start;"
     transform="matrix(1.000000,-0.000000,0.000000,1.000000,26.661909,491.779754)"
     x="0.000000"
     y="0.000000"
     id="text968"><tspan
       sodipodi:role="line"
       x="0.000000"
       y="0.000000"
       id="tspan966"><tspan
         dx="0.000000"
         dy="0.000000"
         style="fill:#000000;font-size:21.312500px;font-style:normal;font-variant:normal;font-weight:400;font-stretch:Normal;font-family:Arial;"
         id="tspan964">de cátedra</tspan></tspan></text>
  <text
     xml:space="preserve"
     style="font-size:21.312500px;font-style:normal;font-variant:normal;font-weight:400;font-stretch:Normal;line-height:125.000000%;letter-spacing:0px;word-spacing:0px;fill:#000000;fill-opacity:1;stroke:none;font-family:Arial;text-align:start;text-anchor:start;"
     transform="matrix(1.000000,-0.000000,0.000000,1.000000,26.661909,517.375187)"
     x="0.000000"
     y="0.000000"
     id="text974"><tspan
       sodipodi:role="line"
       x="0.000000"
       y="0.000000"
       id="tspan972"><tspan
         dx="0.000000"
         dy="0.000000"
         style="fill:#000000;font-size:21.312500px;font-style:normal;font-variant:normal;font-weight:400;font-stretch:Normal;font-family:Arial;"
         id="tspan970">Evaluación y calificación </tspan></tspan></text>
  <text
     xml:space="preserve"
     style="font-size:21.312500px;font-style:normal;font-variant:normal;font-weight:400;font-stretch:Normal;line-height:125.000000%;letter-spacing:0px;word-spacing:0px;fill:#000000;fill-opacity:1;stroke:none;font-family:Arial;text-align:start;text-anchor:start;"
     transform="matrix(1.000000,-0.000000,0.000000,1.000000,361.654408,363.802592)"
     x="0.000000"
     y="0.000000"
     id="text980"><tspan
       sodipodi:role="line"
       x="0.000000"
       y="0.000000"
       id="tspan978"><tspan
         dx="0.000000"
         dy="0.000000"
         style="fill:#000000;font-size:21.312500px;font-style:normal;font-variant:normal;font-weight:400;font-stretch:Normal;font-family:Arial;"
         id="tspan976">Responsabilidad con la estructura </tspan></tspan></text>
  <text
     xml:space="preserve"
     style="font-size:21.312500px;font-style:normal;font-variant:normal;font-weight:400;font-stretch:Normal;line-height:125.000000%;letter-spacing:0px;word-spacing:0px;fill:#000000;fill-opacity:1;stroke:none;font-family:Arial;text-align:start;text-anchor:start;"
     transform="matrix(1.000000,-0.000000,0.000000,1.000000,361.654408,389.398024)"
     x="0.000000"
     y="0.000000"
     id="text986"><tspan
       sodipodi:role="line"
       x="0.000000"
       y="0.000000"
       id="tspan984"><tspan
         dx="0.000000"
         dy="0.000000"
         style="fill:#000000;font-size:21.312500px;font-style:normal;font-variant:normal;font-weight:400;font-stretch:Normal;font-family:Arial;"
         id="tspan982">general del centro</tspan></tspan></text>
  <text
     xml:space="preserve"
     style="font-size:21.312500px;font-style:normal;font-variant:normal;font-weight:400;font-stretch:Normal;line-height:125.000000%;letter-spacing:0px;word-spacing:0px;fill:#000000;fill-opacity:1;stroke:none;font-family:Arial;text-align:start;text-anchor:start;"
     transform="matrix(1.000000,-0.000000,0.000000,1.000000,361.654408,414.993457)"
     x="0.000000"
     y="0.000000"
     id="text992"><tspan
       sodipodi:role="line"
       x="0.000000"
       y="0.000000"
       id="tspan990"><tspan
         dx="0.000000"
         dy="0.000000"
         style="fill:#000000;font-size:21.312500px;font-style:normal;font-variant:normal;font-weight:400;font-stretch:Normal;font-family:Arial;"
         id="tspan988">Responsabilidad en la formación </tspan></tspan></text>
  <text
     xml:space="preserve"
     style="font-size:21.312500px;font-style:normal;font-variant:normal;font-weight:400;font-stretch:Normal;line-height:125.000000%;letter-spacing:0px;word-spacing:0px;fill:#000000;fill-opacity:1;stroke:none;font-family:Arial;text-align:start;text-anchor:start;"
     transform="matrix(1.000000,-0.000000,0.000000,1.000000,361.654408,440.588889)"
     x="0.000000"
     y="0.000000"
     id="text998"><tspan
       sodipodi:role="line"
       x="0.000000"
       y="0.000000"
       id="tspan996"><tspan
         dx="0.000000"
         dy="0.000000"
         style="fill:#000000;font-size:21.312500px;font-style:normal;font-variant:normal;font-weight:400;font-stretch:Normal;font-family:Arial;"
         id="tspan994">inicial y permanente</tspan></tspan></text>
  <text
     xml:space="preserve"
     style="font-size:21.312500px;font-style:normal;font-variant:normal;font-weight:400;font-stretch:Normal;line-height:125.000000%;letter-spacing:0px;word-spacing:0px;fill:#000000;fill-opacity:1;stroke:none;font-family:Arial;text-align:start;text-anchor:start;"
     transform="matrix(1.000000,-0.000000,0.000000,1.000000,772.848217,362.337033)"
     x="0.000000"
     y="0.000000"
     id="text1004"><tspan
       sodipodi:role="line"
       x="0.000000"
       y="0.000000"
       id="tspan1002"><tspan
         dx="0.000000"
         dy="0.000000"
         style="fill:#000000;font-size:21.312500px;font-style:normal;font-variant:normal;font-weight:400;font-stretch:Normal;font-family:Arial;"
         id="tspan1000">Capacidad para el trabajo </tspan></tspan></text>
  <text
     xml:space="preserve"
     style="font-size:21.312500px;font-style:normal;font-variant:normal;font-weight:400;font-stretch:Normal;line-height:125.000000%;letter-spacing:0px;word-spacing:0px;fill:#000000;fill-opacity:1;stroke:none;font-family:Arial;text-align:start;text-anchor:start;"
     transform="matrix(1.000000,-0.000000,0.000000,1.000000,772.848217,387.932466)"
     x="0.000000"
     y="0.000000"
     id="text1010"><tspan
       sodipodi:role="line"
       x="0.000000"
       y="0.000000"
       id="tspan1008"><tspan
         dx="0.000000"
         dy="0.000000"
         style="fill:#000000;font-size:21.312500px;font-style:normal;font-variant:normal;font-weight:400;font-stretch:Normal;font-family:Arial;"
         id="tspan1006">en equipo</tspan></tspan></text>
  <text
     xml:space="preserve"
     style="font-size:21.312500px;font-style:normal;font-variant:normal;font-weight:400;font-stretch:Normal;line-height:125.000000%;letter-spacing:0px;word-spacing:0px;fill:#000000;fill-opacity:1;stroke:none;font-family:Arial;text-align:start;text-anchor:start;"
     transform="matrix(1.000000,-0.000000,0.000000,1.000000,772.848217,413.527898)"
     x="0.000000"
     y="0.000000"
     id="text1016"><tspan
       sodipodi:role="line"
       x="0.000000"
       y="0.000000"
       id="tspan1014"><tspan
         dx="0.000000"
         dy="0.000000"
         style="fill:#000000;font-size:21.312500px;font-style:normal;font-variant:normal;font-weight:400;font-stretch:Normal;font-family:Arial;"
         id="tspan1012">Retorno a la sociedad</tspan></tspan></text>
</svg>
