<?xml version="1.0" encoding="UTF-8" standalone="no"?>
<svg
   xmlns:dc="http://purl.org/dc/elements/1.1/"
   xmlns:cc="http://creativecommons.org/ns#"
   xmlns:rdf="http://www.w3.org/1999/02/22-rdf-syntax-ns#"
   xmlns:svg="http://www.w3.org/2000/svg"
   xmlns="http://www.w3.org/2000/svg"
   xmlns:sodipodi="http://sodipodi.sourceforge.net/DTD/sodipodi-0.dtd"
   xmlns:inkscape="http://www.inkscape.org/namespaces/inkscape"
   version="1.0"
   width="253.88mm"
   height="190.41mm"
   id="svg1419"
   sodipodi:docname="marcopropio.svg"
   inkscape:version="0.92.3 (2405546, 2018-03-11)">
  <metadata
     id="metadata1423">
    <rdf:RDF>
      <cc:Work
         rdf:about="">
        <dc:format>image/svg+xml</dc:format>
        <dc:type
           rdf:resource="http://purl.org/dc/dcmitype/StillImage" />
        <dc:title></dc:title>
      </cc:Work>
    </rdf:RDF>
  </metadata>
  <sodipodi:namedview
     pagecolor="#ffffff"
     bordercolor="#666666"
     borderopacity="1"
     objecttolerance="10"
     gridtolerance="10"
     guidetolerance="10"
     inkscape:pageopacity="0"
     inkscape:pageshadow="2"
     inkscape:window-width="1920"
     inkscape:window-height="1027"
     id="namedview1421"
     showgrid="false"
     inkscape:zoom="1.1922299"
     inkscape:cx="479.77324"
     inkscape:cy="359.82993"
     inkscape:window-x="-8"
     inkscape:window-y="-8"
     inkscape:window-maximized="1"
     inkscape:current-layer="svg1419" />
  <defs
     id="defs1143">
    <clipPath
       clipPathUnits="userSpaceOnUse"
       id="clipEmfPath1">
      <path
         d="M 6.9320963,9.065049 L 966.76081,9.065049 L 966.76081,728.93659 L 6.9320963,728.93659 z"
         id="path1139" />
    </clipPath>
    <pattern
       id="EMFhbasepattern"
       patternUnits="userSpaceOnUse"
       width="6"
       height="6"
       x="0"
       y="0" />
  </defs>
  <path
     style="fill:#ffffff;fill-rule:evenodd;fill-opacity:1;stroke:none;"
     d="  M 6.7987867,8.9317395   L 6.7987867,728.80328   L 966.6275,728.80328   L 966.6275,8.9317395   L 6.7987867,8.9317395   z "
     id="path1145" />
  <text
     xml:space="preserve"
     style="font-size:18.687500px;font-style:normal;font-variant:normal;font-weight:400;font-stretch:Normal;line-height:125.000000%;letter-spacing:0px;word-spacing:0px;fill:#000000;fill-opacity:1;stroke:none;font-family:Roboto;text-align:start;text-anchor:start;"
     transform="matrix(1.000000,-0.000000,0.000000,1.000000,177.280799,658.440639)"
     x="0.000000"
     y="0.000000"
     id="text1151"><tspan
       sodipodi:role="line"
       x="0.000000"
       y="0.000000"
       id="tspan1149"><tspan
         dx="0.000000"
         dy="0.000000"
         style="fill:#0D0D0D;font-size:18.687500px;font-style:normal;font-variant:normal;font-weight:400;font-stretch:Normal;font-family:Roboto;"
         id="tspan1147">Sistemas</tspan></tspan></text>
  <text
     xml:space="preserve"
     style="font-size:18.687500px;font-style:normal;font-variant:normal;font-weight:400;font-stretch:Normal;line-height:125.000000%;letter-spacing:0px;word-spacing:0px;fill:#000000;fill-opacity:1;stroke:none;font-family:Roboto;text-align:start;text-anchor:start;"
     transform="matrix(1.000000,-0.000000,0.000000,1.000000,259.399478,658.440639)"
     x="0.000000"
     y="0.000000"
     id="text1157"><tspan
       sodipodi:role="line"
       x="0.000000"
       y="0.000000"
       id="tspan1155"><tspan
         dx="0.000000"
         dy="0.000000"
         style="fill:#0D0D0D;font-size:18.687500px;font-style:normal;font-variant:normal;font-weight:400;font-stretch:Normal;font-family:Roboto;"
         id="tspan1153">de </tspan></tspan></text>
  <text
     xml:space="preserve"
     style="font-size:18.687500px;font-style:normal;font-variant:normal;font-weight:400;font-stretch:Normal;line-height:125.000000%;letter-spacing:0px;word-spacing:0px;fill:#000000;fill-opacity:1;stroke:none;font-family:Roboto;text-align:start;text-anchor:start;"
     transform="matrix(1.000000,-0.000000,0.000000,1.000000,177.280799,680.836642)"
     x="0.000000"
     y="0.000000"
     id="text1163"><tspan
       sodipodi:role="line"
       x="0.000000"
       y="0.000000"
       id="tspan1161"><tspan
         dx="0.000000"
         dy="0.000000"
         style="fill:#0D0D0D;font-size:18.687500px;font-style:normal;font-variant:normal;font-weight:400;font-stretch:Normal;font-family:Roboto;"
         id="tspan1159">acreditación</tspan></tspan></text>
  <text
     xml:space="preserve"
     style="font-size:18.687500px;font-style:normal;font-variant:normal;font-weight:400;font-stretch:Normal;line-height:125.000000%;letter-spacing:0px;word-spacing:0px;fill:#000000;fill-opacity:1;stroke:none;font-family:Roboto;text-align:start;text-anchor:start;"
     transform="matrix(1.000000,-0.000000,0.000000,1.000000,825.941412,340.769202)"
     x="0.000000"
     y="0.000000"
     id="text1169"><tspan
       sodipodi:role="line"
       x="0.000000"
       y="0.000000"
       id="tspan1167"><tspan
         dx="0.000000"
         dy="0.000000"
         style="fill:#0D0D0D;font-size:18.687500px;font-style:normal;font-variant:normal;font-weight:400;font-stretch:Normal;font-family:Roboto;"
         id="tspan1165">Inserción</tspan></tspan></text>
  <text
     xml:space="preserve"
     style="font-size:18.687500px;font-style:normal;font-variant:normal;font-weight:400;font-stretch:Normal;line-height:125.000000%;letter-spacing:0px;word-spacing:0px;fill:#000000;fill-opacity:1;stroke:none;font-family:Roboto;text-align:start;text-anchor:start;"
     transform="matrix(1.000000,-0.000000,0.000000,1.000000,825.941412,363.165206)"
     x="0.000000"
     y="0.000000"
     id="text1175"><tspan
       sodipodi:role="line"
       x="0.000000"
       y="0.000000"
       id="tspan1173"><tspan
         dx="0.000000"
         dy="0.000000"
         style="fill:#0D0D0D;font-size:18.687500px;font-style:normal;font-variant:normal;font-weight:400;font-stretch:Normal;font-family:Roboto;"
         id="tspan1171">profesional</tspan></tspan></text>
  <text
     xml:space="preserve"
     style="font-size:18.687500px;font-style:normal;font-variant:normal;font-weight:400;font-stretch:Normal;line-height:125.000000%;letter-spacing:0px;word-spacing:0px;fill:#000000;fill-opacity:1;stroke:none;font-family:Roboto;text-align:start;text-anchor:start;"
     transform="matrix(1.000000,-0.000000,0.000000,1.000000,727.205451,655.925918)"
     x="0.000000"
     y="0.000000"
     id="text1181"><tspan
       sodipodi:role="line"
       x="0.000000"
       y="0.000000"
       id="tspan1179"><tspan
         dx="0.000000"
         dy="0.000000"
         style="fill:#0D0D0D;font-size:18.687500px;font-style:normal;font-variant:normal;font-weight:400;font-stretch:Normal;font-family:Roboto;"
         id="tspan1177">Responsabilidad</tspan></tspan></text>
  <text
     xml:space="preserve"
     style="font-size:18.687500px;font-style:normal;font-variant:normal;font-weight:400;font-stretch:Normal;line-height:125.000000%;letter-spacing:0px;word-spacing:0px;fill:#000000;fill-opacity:1;stroke:none;font-family:Roboto;text-align:start;text-anchor:start;"
     transform="matrix(1.000000,-0.000000,0.000000,1.000000,869.313425,655.925918)"
     x="0.000000"
     y="0.000000"
     id="text1187"><tspan
       sodipodi:role="line"
       x="0.000000"
       y="0.000000"
       id="tspan1185"><tspan
         dx="0.000000"
         dy="0.000000"
         style="fill:#0D0D0D;font-size:18.687500px;font-style:normal;font-variant:normal;font-weight:400;font-stretch:Normal;font-family:Roboto;"
         id="tspan1183">Social </tspan></tspan></text>
  <text
     xml:space="preserve"
     style="font-size:18.687500px;font-style:normal;font-variant:normal;font-weight:400;font-stretch:Normal;line-height:125.000000%;letter-spacing:0px;word-spacing:0px;fill:#000000;fill-opacity:1;stroke:none;font-family:Roboto;text-align:start;text-anchor:start;"
     transform="matrix(1.000000,-0.000000,0.000000,1.000000,727.205451,678.321921)"
     x="0.000000"
     y="0.000000"
     id="text1193"><tspan
       sodipodi:role="line"
       x="0.000000"
       y="0.000000"
       id="tspan1191"><tspan
         dx="0.000000"
         dy="0.000000"
         style="fill:#0D0D0D;font-size:18.687500px;font-style:normal;font-variant:normal;font-weight:400;font-stretch:Normal;font-family:Roboto;"
         id="tspan1189">Universitaria</tspan></tspan></text>
  <text
     xml:space="preserve"
     style="font-size:18.687500px;font-style:normal;font-variant:normal;font-weight:400;font-stretch:Normal;line-height:125.000000%;letter-spacing:0px;word-spacing:0px;fill:#000000;fill-opacity:1;stroke:none;font-family:Roboto;text-align:start;text-anchor:start;"
     transform="matrix(1.000000,-0.000000,0.000000,1.000000,835.452800,678.321921)"
     x="0.000000"
     y="0.000000"
     id="text1199"><tspan
       sodipodi:role="line"
       x="0.000000"
       y="0.000000"
       id="tspan1197"><tspan
         dx="0.000000"
         dy="0.000000"
         style="fill:#0D0D0D;font-size:18.687500px;font-style:normal;font-variant:normal;font-weight:400;font-stretch:Normal;font-family:Roboto;"
         id="tspan1195">y </tspan></tspan></text>
  <text
     xml:space="preserve"
     style="font-size:18.687500px;font-style:normal;font-variant:normal;font-weight:400;font-stretch:Normal;line-height:125.000000%;letter-spacing:0px;word-spacing:0px;fill:#000000;fill-opacity:1;stroke:none;font-family:Roboto;text-align:start;text-anchor:start;"
     transform="matrix(1.000000,-0.000000,0.000000,1.000000,849.050374,678.321921)"
     x="0.000000"
     y="0.000000"
     id="text1205"><tspan
       sodipodi:role="line"
       x="0.000000"
       y="0.000000"
       id="tspan1203"><tspan
         dx="0.000000"
         dy="0.000000"
         style="fill:#0D0D0D;font-size:18.687500px;font-style:normal;font-variant:normal;font-weight:400;font-stretch:Normal;font-family:Roboto;"
         id="tspan1201">Ética</tspan></tspan></text>
  <text
     xml:space="preserve"
     style="font-size:18.687500px;font-style:normal;font-variant:normal;font-weight:400;font-stretch:Normal;line-height:125.000000%;letter-spacing:0px;word-spacing:0px;fill:#000000;fill-opacity:1;stroke:none;font-family:Roboto;text-align:start;text-anchor:start;"
     transform="matrix(1.000000,-0.000000,0.000000,1.000000,727.205451,700.717925)"
     x="0.000000"
     y="0.000000"
     id="text1211"><tspan
       sodipodi:role="line"
       x="0.000000"
       y="0.000000"
       id="tspan1209"><tspan
         dx="0.000000"
         dy="0.000000"
         style="fill:#0D0D0D;font-size:18.687500px;font-style:normal;font-variant:normal;font-weight:400;font-stretch:Normal;font-family:Roboto;"
         id="tspan1207">Profesional</tspan></tspan></text>
  <text
     xml:space="preserve"
     style="font-size:18.687500px;font-style:normal;font-variant:normal;font-weight:400;font-stretch:Normal;line-height:125.000000%;letter-spacing:0px;word-spacing:0px;fill:#000000;fill-opacity:1;stroke:none;font-family:Roboto;text-align:start;text-anchor:start;"
     transform="matrix(1.000000,-0.000000,0.000000,1.000000,98.465160,339.870046)"
     x="0.000000"
     y="0.000000"
     id="text1217"><tspan
       sodipodi:role="line"
       x="0.000000"
       y="0.000000"
       id="tspan1215"><tspan
         dx="0.000000"
         dy="0.000000"
         style="fill:#0D0D0D;font-size:18.687500px;font-style:normal;font-variant:normal;font-weight:400;font-stretch:Normal;font-family:Roboto;"
         id="tspan1213">Avances</tspan></tspan></text>
  <text
     xml:space="preserve"
     style="font-size:18.687500px;font-style:normal;font-variant:normal;font-weight:400;font-stretch:Normal;line-height:125.000000%;letter-spacing:0px;word-spacing:0px;fill:#000000;fill-opacity:1;stroke:none;font-family:Roboto;text-align:start;text-anchor:start;"
     transform="matrix(1.000000,-0.000000,0.000000,1.000000,174.184981,339.870046)"
     x="0.000000"
     y="0.000000"
     id="text1223"><tspan
       sodipodi:role="line"
       x="0.000000"
       y="0.000000"
       id="tspan1221"><tspan
         dx="0.000000"
         dy="0.000000"
         style="fill:#0D0D0D;font-size:18.687500px;font-style:normal;font-variant:normal;font-weight:400;font-stretch:Normal;font-family:Roboto;"
         id="tspan1219">en</tspan></tspan></text>
  <text
     xml:space="preserve"
     style="font-size:18.687500px;font-style:normal;font-variant:normal;font-weight:400;font-stretch:Normal;line-height:125.000000%;letter-spacing:0px;word-spacing:0px;fill:#000000;fill-opacity:1;stroke:none;font-family:Roboto;text-align:start;text-anchor:start;"
     transform="matrix(1.000000,-0.000000,0.000000,1.000000,198.980556,339.870046)"
     x="0.000000"
     y="0.000000"
     id="text1229"><tspan
       sodipodi:role="line"
       x="0.000000"
       y="0.000000"
       id="tspan1227"><tspan
         dx="0.000000"
         dy="0.000000"
         style="fill:#0D0D0D;font-size:18.687500px;font-style:normal;font-variant:normal;font-weight:400;font-stretch:Normal;font-family:Roboto;"
         id="tspan1225">la </tspan></tspan></text>
  <text
     xml:space="preserve"
     style="font-size:18.687500px;font-style:normal;font-variant:normal;font-weight:400;font-stretch:Normal;line-height:125.000000%;letter-spacing:0px;word-spacing:0px;fill:#000000;fill-opacity:1;stroke:none;font-family:Roboto;text-align:start;text-anchor:start;"
     transform="matrix(1.000000,-0.000000,0.000000,1.000000,98.465160,362.266050)"
     x="0.000000"
     y="0.000000"
     id="text1235"><tspan
       sodipodi:role="line"
       x="0.000000"
       y="0.000000"
       id="tspan1233"><tspan
         dx="0.000000"
         dy="0.000000"
         style="fill:#0D0D0D;font-size:18.687500px;font-style:normal;font-variant:normal;font-weight:400;font-stretch:Normal;font-family:Roboto;"
         id="tspan1231">ciencia</tspan></tspan></text>
  <text
     xml:space="preserve"
     style="font-size:18.687500px;font-style:normal;font-variant:normal;font-weight:400;font-stretch:Normal;line-height:125.000000%;letter-spacing:0px;word-spacing:0px;fill:#000000;fill-opacity:1;stroke:none;font-family:Roboto;text-align:start;text-anchor:start;"
     transform="matrix(1.000000,-0.000000,0.000000,1.000000,157.654597,362.266050)"
     x="0.000000"
     y="0.000000"
     id="text1241"><tspan
       sodipodi:role="line"
       x="0.000000"
       y="0.000000"
       id="tspan1239"><tspan
         dx="0.000000"
         dy="0.000000"
         style="fill:#0D0D0D;font-size:18.687500px;font-style:normal;font-variant:normal;font-weight:400;font-stretch:Normal;font-family:Roboto;"
         id="tspan1237">, </tspan></tspan></text>
  <text
     xml:space="preserve"
     style="font-size:18.687500px;font-style:normal;font-variant:normal;font-weight:400;font-stretch:Normal;line-height:125.000000%;letter-spacing:0px;word-spacing:0px;fill:#000000;fill-opacity:1;stroke:none;font-family:Roboto;text-align:start;text-anchor:start;"
     transform="matrix(1.000000,-0.000000,0.000000,1.000000,98.465160,384.662053)"
     x="0.000000"
     y="0.000000"
     id="text1247"><tspan
       sodipodi:role="line"
       x="0.000000"
       y="0.000000"
       id="tspan1245"><tspan
         dx="0.000000"
         dy="0.000000"
         style="fill:#0D0D0D;font-size:18.687500px;font-style:normal;font-variant:normal;font-weight:400;font-stretch:Normal;font-family:Roboto;"
         id="tspan1243">cultura</tspan></tspan></text>
  <text
     xml:space="preserve"
     style="font-size:18.687500px;font-style:normal;font-variant:normal;font-weight:400;font-stretch:Normal;line-height:125.000000%;letter-spacing:0px;word-spacing:0px;fill:#000000;fill-opacity:1;stroke:none;font-family:Roboto;text-align:start;text-anchor:start;"
     transform="matrix(1.000000,-0.000000,0.000000,1.000000,160.854027,384.662053)"
     x="0.000000"
     y="0.000000"
     id="text1253"><tspan
       sodipodi:role="line"
       x="0.000000"
       y="0.000000"
       id="tspan1251"><tspan
         dx="0.000000"
         dy="0.000000"
         style="fill:#0D0D0D;font-size:18.687500px;font-style:normal;font-variant:normal;font-weight:400;font-stretch:Normal;font-family:Roboto;"
         id="tspan1249">e </tspan></tspan></text>
  <text
     xml:space="preserve"
     style="font-size:18.687500px;font-style:normal;font-variant:normal;font-weight:400;font-stretch:Normal;line-height:125.000000%;letter-spacing:0px;word-spacing:0px;fill:#000000;fill-opacity:1;stroke:none;font-family:Roboto;text-align:start;text-anchor:start;"
     transform="matrix(1.000000,-0.000000,0.000000,1.000000,98.465160,407.058057)"
     x="0.000000"
     y="0.000000"
     id="text1259"><tspan
       sodipodi:role="line"
       x="0.000000"
       y="0.000000"
       id="tspan1257"><tspan
         dx="0.000000"
         dy="0.000000"
         style="fill:#0D0D0D;font-size:18.687500px;font-style:normal;font-variant:normal;font-weight:400;font-stretch:Normal;font-family:Roboto;"
         id="tspan1255">investigación</tspan></tspan></text>
  <text
     xml:space="preserve"
     style="font-size:18.687500px;font-style:normal;font-variant:normal;font-weight:400;font-stretch:Normal;line-height:125.000000%;letter-spacing:0px;word-spacing:0px;fill:#000000;fill-opacity:1;stroke:none;font-family:Roboto;text-align:start;text-anchor:start;"
     transform="matrix(1.000000,-0.000000,0.000000,1.000000,435.462884,108.592275)"
     x="0.000000"
     y="0.000000"
     id="text1265"><tspan
       sodipodi:role="line"
       x="0.000000"
       y="0.000000"
       id="tspan1263"><tspan
         dx="0.000000"
         dy="0.000000"
         style="fill:#0D0D0D;font-size:18.687500px;font-style:normal;font-variant:normal;font-weight:400;font-stretch:Normal;font-family:Roboto;"
         id="tspan1261">Marco Legal y </tspan></tspan></text>
  <text
     xml:space="preserve"
     style="font-size:18.687500px;font-style:normal;font-variant:normal;font-weight:400;font-stretch:Normal;line-height:125.000000%;letter-spacing:0px;word-spacing:0px;fill:#000000;fill-opacity:1;stroke:none;font-family:Roboto;text-align:start;text-anchor:start;"
     transform="matrix(1.000000,-0.000000,0.000000,1.000000,435.462884,130.988279)"
     x="0.000000"
     y="0.000000"
     id="text1271"><tspan
       sodipodi:role="line"
       x="0.000000"
       y="0.000000"
       id="tspan1269"><tspan
         dx="0.000000"
         dy="0.000000"
         style="fill:#0D0D0D;font-size:18.687500px;font-style:normal;font-variant:normal;font-weight:400;font-stretch:Normal;font-family:Roboto;"
         id="tspan1267">Política</tspan></tspan></text>
  <text
     xml:space="preserve"
     style="font-size:18.687500px;font-style:normal;font-variant:normal;font-weight:400;font-stretch:Normal;line-height:125.000000%;letter-spacing:0px;word-spacing:0px;fill:#000000;fill-opacity:1;stroke:none;font-family:Roboto;text-align:start;text-anchor:start;"
     transform="matrix(1.000000,-0.000000,0.000000,1.000000,435.462884,153.384282)"
     x="0.000000"
     y="0.000000"
     id="text1277"><tspan
       sodipodi:role="line"
       x="0.000000"
       y="0.000000"
       id="tspan1275"><tspan
         dx="0.000000"
         dy="0.000000"
         style="fill:#0D0D0D;font-size:18.687500px;font-style:normal;font-variant:normal;font-weight:400;font-stretch:Normal;font-family:Roboto;"
         id="tspan1273">educativa</tspan></tspan></text>
  <text
     xml:space="preserve"
     style="font-size:21.312500px;font-style:normal;font-variant:normal;font-weight:700;font-stretch:Normal;line-height:125.000000%;letter-spacing:0px;word-spacing:0px;fill:#000000;fill-opacity:1;stroke:none;font-family:Montserrat;text-align:start;text-anchor:start;"
     transform="matrix(1.000000,-0.000000,0.000000,1.000000,819.813209,310.941159)"
     x="0.000000"
     y="0.000000"
     id="text1283"><tspan
       sodipodi:role="line"
       x="0.000000"
       y="0.000000"
       id="tspan1281"><tspan
         dx="0.000000"
         dy="0.000000"
         style="fill:#8DA0CB;font-size:21.312500px;font-style:normal;font-variant:normal;font-weight:700;font-stretch:Normal;font-family:Montserrat;"
         id="tspan1279">EMPLEO</tspan></tspan></text>
  <text
     xml:space="preserve"
     style="font-size:21.312500px;font-style:normal;font-variant:normal;font-weight:700;font-stretch:Normal;line-height:125.000000%;letter-spacing:0px;word-spacing:0px;fill:#000000;fill-opacity:1;stroke:none;font-family:Montserrat;text-align:start;text-anchor:start;"
     transform="matrix(1.000000,-0.000000,0.000000,1.000000,163.253484,633.619091)"
     x="0.000000"
     y="0.000000"
     id="text1289"><tspan
       sodipodi:role="line"
       x="0.000000"
       y="0.000000"
       id="tspan1287"><tspan
         dx="0.000000"
         dy="0.000000"
         style="fill:#E78AC3;font-size:21.312500px;font-style:normal;font-variant:normal;font-weight:700;font-stretch:Normal;font-family:Montserrat;"
         id="tspan1285">CALIDAD</tspan></tspan></text>
  <text
     xml:space="preserve"
     style="font-size:21.312500px;font-style:normal;font-variant:normal;font-weight:700;font-stretch:Normal;line-height:125.000000%;letter-spacing:0px;word-spacing:0px;fill:#000000;fill-opacity:1;stroke:none;font-family:Montserrat;text-align:start;text-anchor:start;"
     transform="matrix(1.000000,-0.000000,0.000000,1.000000,717.935425,633.619091)"
     x="0.000000"
     y="0.000000"
     id="text1295"><tspan
       sodipodi:role="line"
       x="0.000000"
       y="0.000000"
       id="tspan1293"><tspan
         dx="0.000000"
         dy="0.000000"
         style="fill:#A6D854;font-size:21.312500px;font-style:normal;font-variant:normal;font-weight:700;font-stretch:Normal;font-family:Montserrat;"
         id="tspan1291">ÉTICA</tspan></tspan></text>
  <text
     xml:space="preserve"
     style="font-size:21.312500px;font-style:normal;font-variant:normal;font-weight:700;font-stretch:Normal;line-height:125.000000%;letter-spacing:0px;word-spacing:0px;fill:#000000;fill-opacity:1;stroke:none;font-family:Montserrat;text-align:start;text-anchor:start;"
     transform="matrix(1.000000,-0.000000,0.000000,1.000000,97.602114,311.625119)"
     x="0.000000"
     y="0.000000"
     id="text1301"><tspan
       sodipodi:role="line"
       x="0.000000"
       y="0.000000"
       id="tspan1299"><tspan
         dx="0.000000"
         dy="0.000000"
         style="fill:#FC8D62;font-size:21.312500px;font-style:normal;font-variant:normal;font-weight:700;font-stretch:Normal;font-family:Montserrat;"
         id="tspan1297">CIENCIA</tspan></tspan></text>
  <text
     xml:space="preserve"
     style="font-size:21.312500px;font-style:normal;font-variant:normal;font-weight:700;font-stretch:Normal;line-height:125.000000%;letter-spacing:0px;word-spacing:0px;fill:#000000;fill-opacity:1;stroke:none;font-family:Montserrat;text-align:start;text-anchor:start;"
     transform="matrix(1.000000,-0.000000,0.000000,1.000000,424.472690,82.156360)"
     x="0.000000"
     y="0.000000"
     id="text1307"><tspan
       sodipodi:role="line"
       x="0.000000"
       y="0.000000"
       id="tspan1305"><tspan
         dx="0.000000"
         dy="0.000000"
         style="fill:#66C2A5;font-size:21.312500px;font-style:normal;font-variant:normal;font-weight:700;font-stretch:Normal;font-family:Montserrat;"
         id="tspan1303">MARCO LEGAL</tspan></tspan></text>
  <text
     xml:space="preserve"
     style="font-size:80.000000px;font-style:normal;font-variant:normal;font-weight:400;font-stretch:Condensed;line-height:125.000000%;letter-spacing:0px;word-spacing:0px;fill:#000000;fill-opacity:1;stroke:none;font-family:DIN;text-align:start;text-anchor:start;"
     transform="matrix(1.000000,-0.000000,0.000000,1.000000,761.007687,280.165645)"
     x="0.000000"
     y="0.000000"
     id="text1313"><tspan
       sodipodi:role="line"
       x="0.000000"
       y="0.000000"
       id="tspan1311"><tspan
         dx="0.000000"
         dy="0.000000"
         style="fill:#8DA0CB;font-size:80.000000px;font-style:normal;font-variant:normal;font-weight:400;font-stretch:Condensed;font-family:DIN;"
         id="tspan1309">G3</tspan></tspan></text>
  <text
     xml:space="preserve"
     style="font-size:80.000000px;font-style:normal;font-variant:normal;font-weight:400;font-stretch:Condensed;line-height:125.000000%;letter-spacing:0px;word-spacing:0px;fill:#000000;fill-opacity:1;stroke:none;font-family:DIN;text-align:start;text-anchor:start;"
     transform="matrix(1.000000,-0.000000,0.000000,1.000000,58.990942,658.523436)"
     x="0.000000"
     y="0.000000"
     id="text1319"><tspan
       sodipodi:role="line"
       x="0.000000"
       y="0.000000"
       id="tspan1317"><tspan
         dx="0.000000"
         dy="0.000000"
         style="fill:#E78AC3;font-size:80.000000px;font-style:normal;font-variant:normal;font-weight:400;font-stretch:Condensed;font-family:DIN;"
         id="tspan1315">G4</tspan></tspan></text>
  <text
     xml:space="preserve"
     style="font-size:80.000000px;font-style:normal;font-variant:normal;font-weight:400;font-stretch:Condensed;line-height:125.000000%;letter-spacing:0px;word-spacing:0px;fill:#000000;fill-opacity:1;stroke:none;font-family:DIN;text-align:start;text-anchor:start;"
     transform="matrix(1.000000,-0.000000,0.000000,1.000000,613.006754,663.452635)"
     x="0.000000"
     y="0.000000"
     id="text1325"><tspan
       sodipodi:role="line"
       x="0.000000"
       y="0.000000"
       id="tspan1323"><tspan
         dx="0.000000"
         dy="0.000000"
         style="fill:#A6D854;font-size:80.000000px;font-style:normal;font-variant:normal;font-weight:400;font-stretch:Condensed;font-family:DIN;"
         id="tspan1321">G5</tspan></tspan></text>
  <text
     xml:space="preserve"
     style="font-size:80.000000px;font-style:normal;font-variant:normal;font-weight:400;font-stretch:Condensed;line-height:125.000000%;letter-spacing:0px;word-spacing:0px;fill:#000000;fill-opacity:1;stroke:none;font-family:DIN;text-align:start;text-anchor:start;"
     transform="matrix(1.000000,-0.000000,0.000000,1.000000,32.588514,274.753590)"
     x="0.000000"
     y="0.000000"
     id="text1331"><tspan
       sodipodi:role="line"
       x="0.000000"
       y="0.000000"
       id="tspan1329"><tspan
         dx="0.000000"
         dy="0.000000"
         style="fill:#FC8D62;font-size:80.000000px;font-style:normal;font-variant:normal;font-weight:400;font-stretch:Condensed;font-family:DIN;"
         id="tspan1327">G2</tspan></tspan></text>
  <text
     xml:space="preserve"
     style="font-size:80.000000px;font-style:normal;font-variant:normal;font-weight:400;font-stretch:Condensed;line-height:125.000000%;letter-spacing:0px;word-spacing:0px;fill:#000000;fill-opacity:1;stroke:none;font-family:DIN;text-align:start;text-anchor:start;"
     transform="matrix(1.000000,-0.000000,0.000000,1.000000,331.131762,121.953880)"
     x="0.000000"
     y="0.000000"
     id="text1337"><tspan
       sodipodi:role="line"
       x="0.000000"
       y="0.000000"
       id="tspan1335"><tspan
         dx="0.000000"
         dy="0.000000"
         style="fill:#66C2A5;font-size:80.000000px;font-style:normal;font-variant:normal;font-weight:400;font-stretch:Condensed;font-family:DIN;"
         id="tspan1333">G1</tspan></tspan></text>
  <path
     style="fill:#ffffff;fill-rule:evenodd;fill-opacity:1;stroke:none;"
     d="  M 530.62198,424.72421   C 530.62198,426.02398 529.65548,426.99047 528.35571,426.99047   C 516.02458,426.99047 516.02458,426.99047 516.02458,426.99047   C 515.04142,426.99047 514.07493,426.02398 514.07493,424.72421   C 514.07493,424.72421 514.07493,424.72421 514.07493,424.72421   C 514.07493,423.74105 515.04142,422.77456 516.02458,422.77456   C 528.35571,422.77456 528.35571,422.77456 528.35571,422.77456   C 529.65548,422.77456 530.62198,423.74105 530.62198,424.72421   z  M 530.62198,419.52514   C 530.62198,418.22537 529.65548,417.57548 528.35571,417.57548   C 516.02458,417.57548 516.02458,417.57548 516.02458,417.57548   C 515.04142,417.57548 514.07493,418.22537 514.07493,419.52514   C 514.07493,419.52514 514.07493,419.52514 514.07493,419.52514   C 514.07493,420.49163 515.04142,421.47479 516.02458,421.47479   C 528.35571,421.47479 528.35571,421.47479 528.35571,421.47479   C 529.65548,421.47479 530.62198,420.49163 530.62198,419.52514   z  M 524.1398,397.12913   C 521.54026,397.12913 521.54026,397.12913 521.54026,397.12913   C 520.2405,397.12913 520.2405,397.12913 520.2405,397.12913   C 520.2405,416.27572 520.2405,416.27572 520.2405,416.27572   C 520.89038,416.27572 521.54026,416.27572 522.19015,416.27572   C 522.19015,416.27572 522.19015,416.27572 522.19015,416.27572   C 522.19015,416.27572 522.19015,416.27572 522.19015,416.27572   C 522.50676,416.27572 522.50676,416.27572 522.50676,416.27572   C 522.50676,416.27572 522.50676,416.27572 522.50676,416.27572   C 523.15664,416.27572 523.80653,416.27572 524.1398,416.27572   L 524.1398,397.12913   z  M 515.69131,389.34719   C 514.07493,389.34719 512.45855,390.64696 512.45855,392.26333   C 512.45855,393.89638 514.07493,395.17948 515.69131,395.17948   C 518.62412,395.17948 518.62412,395.17948 518.62412,395.17948   C 518.62412,392.26333 518.62412,392.26333 518.62412,392.26333   C 518.62412,390.64696 517.32435,389.34719 515.69131,389.34719   z  M 531.92174,392.26333   C 531.92174,390.64696 530.62198,389.34719 529.0056,389.34719   C 527.37256,389.34719 526.07279,390.64696 526.07279,392.26333   C 526.07279,395.17948 526.07279,395.17948 526.07279,395.17948   C 529.0056,395.17948 529.0056,395.17948 529.0056,395.17948   C 530.62198,395.17948 531.92174,393.89638 531.92174,392.26333   z  M 538.40392,387.08092   C 537.10415,381.88185 530.95525,376.0329 522.19015,376.0329   C 513.75832,376.0329 507.59275,381.88185 506.29298,387.08092   C 504.99322,390.96357 505.95971,394.86287 507.90936,398.4289   C 509.5424,401.67832 511.47539,404.27786 512.77516,407.84389   C 513.75832,409.46026 514.07493,412.0598 514.4082,414.00945   C 514.72481,415.62583 515.3747,416.27572 517.32435,416.27572   C 517.64096,416.27572 517.97423,416.27572 518.62412,416.27572   C 518.62412,397.12913 518.62412,397.12913 518.62412,397.12913   C 515.69131,397.12913 515.69131,397.12913 515.69131,397.12913   C 514.4082,397.12913 513.10844,396.47925 512.12528,395.82936   C 511.15878,394.86287 510.82551,393.5631 510.82551,392.26333   C 510.82551,390.96357 511.15878,389.6638 512.12528,389.01391   C 513.10844,388.04742 514.4082,387.39754 515.69131,387.39754   C 518.29084,387.39754 520.2405,389.6638 520.2405,392.26333   C 520.2405,392.26333 520.2405,392.26333 520.2405,392.26333   C 520.2405,395.17948 520.2405,395.17948 520.2405,395.17948   C 521.54026,395.17948 521.54026,395.17948 521.54026,395.17948   C 524.1398,395.17948 524.1398,395.17948 524.1398,395.17948   C 524.1398,392.26333 524.1398,392.26333 524.1398,392.26333   C 524.1398,392.26333 524.1398,392.26333 524.1398,392.26333   C 524.45641,390.96357 524.78968,389.6638 525.75618,389.01391   C 526.72267,388.04742 527.70583,387.39754 529.0056,387.39754   C 530.30537,387.39754 531.58847,388.04742 532.57163,389.01391   C 533.53812,389.6638 533.8714,390.96357 533.8714,392.26333   C 533.8714,393.5631 533.53812,394.86287 532.57163,395.82936   C 531.58847,396.47925 530.30537,397.12913 529.0056,397.12913   C 526.07279,397.12913 526.07279,397.12913 526.07279,397.12913   C 526.07279,416.27572 526.07279,416.27572 526.07279,416.27572   C 526.72267,416.27572 527.05595,416.27572 527.37256,416.27572   C 529.32221,416.27572 529.97209,415.62583 530.30537,414.00945   C 530.62198,412.0598 530.95525,409.46026 531.58847,407.84389   C 533.22151,404.27786 535.17116,401.67832 536.78754,398.4289   C 538.7372,394.86287 539.70369,390.96357 538.40392,387.08092   z  M 524.1398,370.2006   C 524.1398,369.21745 523.15664,368.25095 522.19015,368.25095   C 522.19015,368.25095 522.19015,368.25095 522.19015,368.25095   C 521.20699,368.25095 520.55711,369.21745 520.55711,370.2006   C 520.55711,373.45002 520.55711,373.45002 520.55711,373.45002   C 520.55711,374.41652 521.20699,375.0664 522.19015,375.0664   C 522.19015,375.0664 522.19015,375.0664 522.19015,375.0664   C 523.15664,375.0664 524.1398,374.41652 524.1398,373.45002   L 524.1398,370.2006   z  M 533.8714,373.11675   C 534.52128,372.15026 534.18801,371.1671 533.22151,370.51721   C 533.22151,370.51721 533.22151,370.51721 533.22151,370.51721   C 532.57163,370.2006 531.27186,370.51721 530.95525,371.1671   C 529.32221,374.09991 529.32221,374.09991 529.32221,374.09991   C 528.67232,375.0664 529.0056,376.0329 529.97209,376.68278   C 529.97209,376.68278 529.97209,376.68278 529.97209,376.68278   C 530.95525,377.01605 531.92174,376.68278 532.57163,376.0329   L 533.8714,373.11675   z  M 541.33673,378.63243   C 541.98662,377.98255 541.98662,377.01605 541.33673,376.36617   C 541.33673,376.36617 541.33673,376.36617 541.33673,376.36617   C 540.68685,375.38301 539.70369,375.38301 539.05381,376.0329   C 536.47093,378.31582 536.47093,378.31582 536.47093,378.31582   C 535.82105,378.96571 535.82105,379.9322 536.47093,380.89869   C 536.47093,380.89869 536.47093,380.89869 536.47093,380.89869   C 537.10415,381.54858 538.08731,381.54858 538.7372,380.89869   L 541.33673,378.63243   z  M 545.21937,387.39754   C 546.20253,387.39754 546.85241,386.43104 546.51914,385.44788   C 546.51914,385.44788 546.51914,385.44788 546.51914,385.44788   C 546.51914,384.48139 545.55265,383.8315 544.56949,383.8315   C 541.33673,384.48139 541.33673,384.48139 541.33673,384.48139   C 540.35357,384.798 539.70369,385.78116 539.70369,386.74765   C 539.70369,386.74765 539.70369,386.74765 539.70369,386.74765   C 540.03696,387.71415 541.00346,388.36403 541.98662,388.04742   L 545.21937,387.39754   z  M 544.25288,397.12913   C 545.21937,397.12913 546.20253,396.47925 546.51914,395.51275   C 546.51914,395.51275 546.51914,395.51275 546.51914,395.51275   C 546.51914,394.5296 545.86926,393.89638 544.90276,393.5631   C 541.98662,392.91322 541.98662,392.91322 541.98662,392.91322   C 541.00346,392.59661 540.03696,393.24649 539.70369,394.21299   C 539.70369,394.21299 539.70369,394.21299 539.70369,394.21299   C 539.38708,395.17948 540.03696,396.16264 541.00346,396.47925   L 544.25288,397.12913   z  M 512.12528,376.0329   C 512.45855,376.68278 513.42505,377.01605 514.4082,376.68278   C 514.4082,376.68278 514.4082,376.68278 514.4082,376.68278   C 515.3747,376.0329 515.69131,375.0664 515.04142,374.09991   C 513.42505,371.1671 513.42505,371.1671 513.42505,371.1671   C 513.10844,370.51721 512.12528,370.2006 511.15878,370.51721   C 511.15878,370.51721 511.15878,370.51721 511.15878,370.51721   C 510.17563,371.1671 509.85902,372.15026 510.5089,373.11675   L 512.12528,376.0329   z  M 505.6431,380.89869   C 506.29298,381.54858 507.59275,381.54858 508.24264,380.89869   C 508.24264,380.89869 508.24264,380.89869 508.24264,380.89869   C 508.89252,379.9322 508.55925,378.96571 507.90936,378.31582   C 505.6431,376.0329 505.6431,376.0329 505.6431,376.0329   C 504.65994,375.38301 503.69345,375.38301 503.04356,376.36617   C 503.04356,376.36617 503.04356,376.36617 503.04356,376.36617   C 502.39368,377.01605 502.39368,377.98255 503.04356,378.63243   L 505.6431,380.89869   z  M 502.39368,388.04742   C 503.37684,388.36403 504.34333,387.71415 504.65994,386.74765   C 504.65994,386.74765 504.65994,386.74765 504.65994,386.74765   C 504.65994,385.78116 504.02672,384.798 503.04356,384.48139   C 499.79414,383.8315 499.79414,383.8315 499.79414,383.8315   C 498.82765,383.8315 498.17777,384.48139 497.86116,385.44788   C 497.86116,385.44788 497.86116,385.44788 497.86116,385.44788   C 497.86116,386.43104 498.17777,387.39754 499.14426,387.39754   L 502.39368,388.04742   z  M 503.37684,396.47925   C 504.34333,396.16264 504.99322,395.17948 504.65994,394.21299   C 504.65994,394.21299 504.65994,394.21299 504.65994,394.21299   C 504.65994,393.24649 503.69345,392.59661 502.72695,392.91322   C 499.47753,393.5631 499.47753,393.5631 499.47753,393.5631   C 498.51104,393.89638 497.86116,394.5296 497.86116,395.51275   C 497.86116,395.51275 497.86116,395.51275 497.86116,395.51275   C 498.17777,396.47925 499.14426,397.12913 500.12742,397.12913   L 503.37684,396.47925   z "
     id="path1339" />
  <text
     xml:space="preserve"
     style="font-size:48.000000px;font-style:normal;font-variant:normal;font-weight:700;font-stretch:Normal;line-height:125.000000%;letter-spacing:0px;word-spacing:0px;fill:#000000;fill-opacity:1;stroke:none;font-family:Roboto;text-align:start;text-anchor:start;"
     transform="matrix(1.000000,-0.000000,0.000000,1.000000,39.885796,80.497655)"
     x="0.000000"
     y="0.000000"
     id="text1345"><tspan
       sodipodi:role="line"
       x="0.000000"
       y="0.000000"
       id="tspan1343"><tspan
         dx="0.000000"
         dy="0.000000"
         style="fill:#61605E;font-size:48.000000px;font-style:normal;font-variant:normal;font-weight:700;font-stretch:Normal;font-family:Roboto;"
         id="tspan1341">CONTEXTO </tspan></tspan></text>
  <text
     xml:space="preserve"
     style="font-size:48.000000px;font-style:normal;font-variant:normal;font-weight:700;font-stretch:Normal;line-height:125.000000%;letter-spacing:0px;word-spacing:0px;fill:#000000;fill-opacity:1;stroke:none;font-family:Roboto;text-align:start;text-anchor:start;"
     transform="matrix(1.000000,-0.000000,0.000000,1.000000,39.885796,138.087378)"
     x="0.000000"
     y="0.000000"
     id="text1351"><tspan
       sodipodi:role="line"
       x="0.000000"
       y="0.000000"
       id="tspan1349"><tspan
         dx="0.000000"
         dy="0.000000"
         style="fill:#61605E;font-size:48.000000px;font-style:normal;font-variant:normal;font-weight:700;font-stretch:Normal;font-family:Roboto;"
         id="tspan1347">GENERAL</tspan></tspan></text>
  <path
     style="fill:#ffab2b;fill-rule:evenodd;fill-opacity:1;stroke:none;"
     d="  M 678.91218,218.42769   C 678.91218,218.42769 678.91218,218.42769 678.91218,217.89445   C 486.94644,217.89445 486.94644,217.89445 486.94644,217.89445   C 486.94644,332.94059 486.94644,332.94059 486.94644,332.94059   C 486.94644,332.94059 486.94644,332.94059 486.94644,333.47382   C 678.91218,333.47382 678.91218,333.47382 678.91218,333.47382   C 678.91218,332.94059 678.91218,332.94059 678.91218,332.94059   L 678.91218,218.42769   z "
     id="path1353" />
  <path
     style="fill:#e24956;fill-rule:evenodd;fill-opacity:1;stroke:none;"
     d="  M 505.85973,380.18216   C 505.85973,380.18216 505.85973,380.18216 505.85973,380.18216   C 313.89399,380.18216 313.89399,380.18216 313.89399,380.18216   C 313.89399,483.34708 313.89399,483.34708 313.89399,483.34708   C 313.89399,483.81366 313.89399,483.81366 313.89399,483.81366   C 505.85973,483.81366 505.85973,483.81366 505.85973,483.81366   C 505.85973,483.81366 505.85973,483.81366 505.85973,483.81366   L 505.85973,380.18216   z "
     id="path1355" />
  <path
     style="fill:#ffd92f;fill-rule:evenodd;fill-opacity:1;stroke:none;"
     d="  M 455.86865,220.01074   C 455.86865,219.4775 455.86865,219.4775 455.86865,219.4775   C 264.35283,219.4775 264.35283,219.4775 264.35283,219.4775   C 264.35283,219.4775 264.35283,219.4775 264.35283,219.4775   C 263.90291,334.12371 263.90291,334.12371 263.90291,334.12371   C 263.90291,334.65695 264.35283,334.65695 264.35283,334.65695   C 455.86865,334.65695 455.86865,334.65695 455.86865,334.65695   C 455.86865,334.65695 455.86865,334.65695 455.86865,334.65695   L 455.86865,220.01074   z "
     id="path1357" />
  <path
     style="fill:#64d1da;fill-rule:evenodd;fill-opacity:1;stroke:none;"
     d="  M 724.60403,380.6654   C 724.60403,380.6654 724.60403,380.6654 724.60403,380.19882   C 532.63828,380.19882 532.63828,380.19882 532.63828,380.19882   C 532.63828,483.34708 532.63828,483.34708 532.63828,483.34708   C 532.63828,483.34708 532.63828,483.34708 532.63828,483.81366   C 724.13744,483.81366 724.13744,483.81366 724.13744,483.81366   C 724.13744,483.34708 724.60403,483.34708 724.60403,483.34708   L 724.60403,380.6654   z "
     id="path1359" />
  <text
     xml:space="preserve"
     style="font-size:18.937500px;font-style:normal;font-variant:normal;font-weight:700;font-stretch:Normal;line-height:125.000000%;letter-spacing:0px;word-spacing:0px;fill:#000000;fill-opacity:1;stroke:none;font-family:Montserrat;text-align:start;text-anchor:start;"
     transform="matrix(1.000000,-0.000000,0.000000,1.000000,295.291543,267.425878)"
     x="0.000000"
     y="0.000000"
     id="text1365"><tspan
       sodipodi:role="line"
       x="0.000000"
       y="0.000000"
       id="tspan1363"><tspan
         dx="0.000000"
         dy="0.000000"
         style="fill:#FFFFFF;font-size:18.937500px;font-style:normal;font-variant:normal;font-weight:700;font-stretch:Normal;font-family:Montserrat;"
         id="tspan1361">INSTITUCIÓN</tspan></tspan></text>
  <text
     xml:space="preserve"
     style="font-size:38.937500px;font-style:normal;font-variant:normal;font-weight:400;font-stretch:Normal;line-height:125.000000%;letter-spacing:0px;word-spacing:0px;fill:#000000;fill-opacity:1;stroke:none;font-family:Montserrat;text-align:start;text-anchor:start;"
     transform="matrix(1.000000,-0.000000,0.000000,1.000000,339.545072,299.795622)"
     x="0.000000"
     y="0.000000"
     id="text1371"><tspan
       sodipodi:role="line"
       x="0.000000"
       y="0.000000"
       id="tspan1369"><tspan
         dx="0.000000"
         dy="0.000000"
         style="fill:#FFFFFF;font-size:38.937500px;font-style:normal;font-variant:normal;font-weight:400;font-stretch:Normal;font-family:Montserrat;"
         id="tspan1367">E1</tspan></tspan></text>
  <text
     xml:space="preserve"
     style="font-size:18.937500px;font-style:normal;font-variant:normal;font-weight:700;font-stretch:Normal;line-height:125.000000%;letter-spacing:0px;word-spacing:0px;fill:#000000;fill-opacity:1;stroke:none;font-family:Montserrat;text-align:start;text-anchor:start;"
     transform="matrix(1.000000,-0.000000,0.000000,1.000000,368.225012,420.086396)"
     x="0.000000"
     y="0.000000"
     id="text1377"><tspan
       sodipodi:role="line"
       x="0.000000"
       y="0.000000"
       id="tspan1375"><tspan
         dx="0.000000"
         dy="0.000000"
         style="fill:#FFFFFF;font-size:18.937500px;font-style:normal;font-variant:normal;font-weight:700;font-stretch:Normal;font-family:Montserrat;"
         id="tspan1373">TÍTULOS</tspan></tspan></text>
  <text
     xml:space="preserve"
     style="font-size:38.937500px;font-style:normal;font-variant:normal;font-weight:400;font-stretch:Normal;line-height:125.000000%;letter-spacing:0px;word-spacing:0px;fill:#000000;fill-opacity:1;stroke:none;font-family:Montserrat;text-align:start;text-anchor:start;"
     transform="matrix(1.000000,-0.000000,0.000000,1.000000,381.797493,455.110387)"
     x="0.000000"
     y="0.000000"
     id="text1383"><tspan
       sodipodi:role="line"
       x="0.000000"
       y="0.000000"
       id="tspan1381"><tspan
         dx="0.000000"
         dy="0.000000"
         style="fill:#FFFFFF;font-size:38.937500px;font-style:normal;font-variant:normal;font-weight:400;font-stretch:Normal;font-family:Montserrat;"
         id="tspan1379">E2</tspan></tspan></text>
  <text
     xml:space="preserve"
     style="font-size:18.937500px;font-style:normal;font-variant:normal;font-weight:700;font-stretch:Normal;line-height:125.000000%;letter-spacing:0px;word-spacing:0px;fill:#000000;fill-opacity:1;stroke:none;font-family:Montserrat;text-align:start;text-anchor:start;"
     transform="matrix(1.000000,-0.000000,0.000000,1.000000,520.298135,266.710413)"
     x="0.000000"
     y="0.000000"
     id="text1389"><tspan
       sodipodi:role="line"
       x="0.000000"
       y="0.000000"
       id="tspan1387"><tspan
         dx="0.000000"
         dy="0.000000"
         style="fill:#FFFFFF;font-size:18.937500px;font-style:normal;font-variant:normal;font-weight:700;font-stretch:Normal;font-family:Montserrat;"
         id="tspan1385">ÁREA CONOC.</tspan></tspan></text>
  <text
     xml:space="preserve"
     style="font-size:38.937500px;font-style:normal;font-variant:normal;font-weight:400;font-stretch:Normal;line-height:125.000000%;letter-spacing:0px;word-spacing:0px;fill:#000000;fill-opacity:1;stroke:none;font-family:Montserrat;text-align:start;text-anchor:start;"
     transform="matrix(1.000000,-0.000000,0.000000,1.000000,559.057722,300.440234)"
     x="0.000000"
     y="0.000000"
     id="text1395"><tspan
       sodipodi:role="line"
       x="0.000000"
       y="0.000000"
       id="tspan1393"><tspan
         dx="0.000000"
         dy="0.000000"
         style="fill:#FFFFFF;font-size:38.937500px;font-style:normal;font-variant:normal;font-weight:400;font-stretch:Normal;font-family:Montserrat;"
         id="tspan1391">E3</tspan></tspan></text>
  <text
     xml:space="preserve"
     style="font-size:18.937500px;font-style:normal;font-variant:normal;font-weight:700;font-stretch:Normal;line-height:125.000000%;letter-spacing:0px;word-spacing:0px;fill:#000000;fill-opacity:1;stroke:none;font-family:Montserrat;text-align:start;text-anchor:start;"
     transform="matrix(1.000000,-0.000000,0.000000,1.000000,560.432282,421.548928)"
     x="0.000000"
     y="0.000000"
     id="text1401"><tspan
       sodipodi:role="line"
       x="0.000000"
       y="0.000000"
       id="tspan1399"><tspan
         dx="0.000000"
         dy="0.000000"
         style="fill:#FFFFFF;font-size:18.937500px;font-style:normal;font-variant:normal;font-weight:700;font-stretch:Normal;font-family:Montserrat;"
         id="tspan1397">ESTUDIANTES</tspan></tspan></text>
  <text
     xml:space="preserve"
     style="font-size:38.937500px;font-style:normal;font-variant:normal;font-weight:400;font-stretch:Normal;line-height:125.000000%;letter-spacing:0px;word-spacing:0px;fill:#000000;fill-opacity:1;stroke:none;font-family:Montserrat;text-align:start;text-anchor:start;"
     transform="matrix(1.000000,-0.000000,0.000000,1.000000,606.380528,457.395558)"
     x="0.000000"
     y="0.000000"
     id="text1407"><tspan
       sodipodi:role="line"
       x="0.000000"
       y="0.000000"
       id="tspan1405"><tspan
         dx="0.000000"
         dy="0.000000"
         style="fill:#FFFFFF;font-size:38.937500px;font-style:normal;font-variant:normal;font-weight:400;font-stretch:Normal;font-family:Montserrat;"
         id="tspan1403">E4</tspan></tspan></text>
  <path
     style="fill:none;stroke:#a6a6a6;stroke-width:3.9992864px;stroke-linecap:butt;stroke-linejoin:miter;stroke-miterlimit:8;stroke-dasharray:none;stroke-opacity:1;"
     clip-path="url(#clipEmfPath1)"
     d="  M 24.129027,24.029045   L 953.29655,24.029045   L 953.29655,713.7393   L 24.129027,713.7393   z "
     id="path1409" />
  <path
     style="fill:none;stroke:#a6a6a6;stroke-width:3.9992864px;stroke-linecap:butt;stroke-linejoin:miter;stroke-miterlimit:8;stroke-dasharray:none;stroke-opacity:1;"
     d="  M 234.59147,170.06965   L 751.06597,170.06965   L 751.06597,594.86051   L 234.59147,594.86051   z "
     id="path1411" />
  <text
     xml:space="preserve"
     style="font-size:37.312500px;font-style:normal;font-variant:normal;font-weight:700;font-stretch:Normal;line-height:125.000000%;letter-spacing:0px;word-spacing:0px;fill:#000000;fill-opacity:1;stroke:none;font-family:Roboto;text-align:start;text-anchor:start;"
     transform="matrix(1.000000,-0.000000,0.000000,1.000000,280.095004,558.121626)"
     x="0.000000"
     y="0.000000"
     id="text1417"><tspan
       sodipodi:role="line"
       x="0.000000"
       y="0.000000"
       id="tspan1415"><tspan
         dx="0.000000"
         dy="0.000000"
         style="fill:#61605E;font-size:37.312500px;font-style:normal;font-variant:normal;font-weight:700;font-stretch:Normal;font-family:Roboto;"
         id="tspan1413">CONTEXTO ESPECÍFICO</tspan></tspan></text>
</svg>
